<svg width="31" height="31" viewBox="0 0 31 31" fill="none" xmlns="http://www.w3.org/2000/svg">
<g opacity="0.7" clip-path="url(#clip0)">
<path fill-rule="evenodd" clip-rule="evenodd" d="M9.54747 10.8148C10.4342 11.2295 11.1963 11.8699 11.7575 12.672C12.3187 13.474 12.6592 14.4095 12.7448 15.3846C13.001 18.4367 10.7503 21.1253 7.7007 21.4098C4.65127 21.6945 1.94173 19.469 1.62866 16.4222L1.62768 16.4223L0.892802 8.02263L0.898021 8.02217C0.865781 7.65367 0.98125 7.28745 1.21903 7.00408C1.4568 6.72071 1.79741 6.5434 2.16591 6.51116C2.53442 6.47892 2.90064 6.59439 3.18401 6.83217C3.46738 7.06994 3.64469 7.41055 3.67693 7.77905L3.68329 7.7785L3.99057 11.2908C4.79384 10.7314 5.73005 10.3929 6.70535 10.3094C7.68065 10.2259 8.66077 10.4002 9.54747 10.8148ZM8.46803 18.3387C8.956 18.0846 9.35767 17.6915 9.62224 17.2092C9.8868 16.7268 10.0024 16.1768 9.95434 15.6287C9.82046 14.0985 8.4714 12.9665 6.94118 13.1004C6.5315 13.1363 6.13487 13.2626 5.77986 13.4702C5.42485 13.6778 5.12029 13.9615 4.88811 14.3009C4.65593 14.6404 4.50191 15.0271 4.43714 15.4332C4.37236 15.8393 4.39845 16.2547 4.51352 16.6496C4.62859 17.0444 4.82978 17.4088 5.1026 17.7165C5.37542 18.0242 5.71308 18.2676 6.09127 18.4292C6.46947 18.5907 6.87877 18.6664 7.28973 18.6508C7.70068 18.6351 8.10305 18.5285 8.46787 18.3387L8.46803 18.3387Z" fill="#949BA5"/>
<path fill-rule="evenodd" clip-rule="evenodd" d="M18.1181 14.877C17.8643 11.8165 20.1184 9.1243 23.1647 8.85778C26.2196 8.59051 28.9138 10.8639 29.1825 13.9353C29.4512 17.0066 27.1925 19.7132 24.1376 19.9804L24.1378 19.9829L21.3819 20.224L21.6312 23.0725L21.6251 23.0731C21.653 23.4372 21.5361 23.7977 21.2998 24.0762C21.0636 24.3547 20.727 24.5287 20.3631 24.5606C19.9993 24.5924 19.6376 24.4794 19.3566 24.2462C19.0755 24.013 18.8978 23.6783 18.862 23.3148L18.856 23.3153L18.5907 20.2828C17.5074 20.0931 16.505 19.5858 15.7106 18.8252C15.2454 19.4615 14.6493 19.9909 13.9626 20.3779C13.2758 20.7648 12.5142 21.0004 11.7289 21.0687L7.61237 21.4288L7.36823 18.6383L11.485 18.2782C11.8479 18.2455 12.2007 18.1416 12.5234 17.9725C12.8461 17.8034 13.1323 17.5725 13.3657 17.2928C13.5991 17.0131 13.7752 16.6901 13.8838 16.3424C13.9924 15.9947 14.0314 15.629 13.9987 15.2661L13.645 11.2229L13.6498 11.2225C13.6178 10.8559 13.7326 10.4917 13.9691 10.2099C14.2056 9.92802 14.5444 9.75167 14.9109 9.71961C15.2774 9.68754 15.6417 9.80239 15.9235 10.0389C16.2053 10.2754 16.3817 10.6141 16.4137 10.9807L16.4203 10.9801L16.7753 15.0383C16.8175 15.5151 16.9828 15.9728 17.2551 16.3665C17.5274 16.7602 17.8974 17.0763 18.3286 17.284L18.1181 14.877ZM23.8939 17.1925L23.8937 17.1899C25.4138 17.0569 26.5391 15.7182 26.4089 14.1978C26.2787 12.6776 24.942 11.5498 23.4214 11.6772C21.9008 11.8047 20.7705 13.1393 20.8953 14.6601L21.138 17.4337L23.8939 17.1925Z" fill="#949BA5"/>
<path d="M14.8786 8.2155C15.061 8.19951 15.2385 8.14775 15.4009 8.06317C15.5634 7.97858 15.7076 7.86283 15.8253 7.72252C15.943 7.58222 16.0319 7.4201 16.0869 7.24543C16.142 7.07076 16.1621 6.88695 16.1461 6.70451C16.1301 6.52207 16.0784 6.34456 15.9938 6.18212C15.9092 6.01968 15.7935 5.8755 15.6532 5.75779C15.5128 5.64009 15.3507 5.55117 15.1761 5.49612C15.0014 5.44107 14.8176 5.42096 14.6351 5.43695C14.2667 5.46925 13.9261 5.64659 13.6885 5.92997C13.4508 6.21335 13.3354 6.57955 13.3677 6.94801C13.4 7.31646 13.5773 7.657 13.8607 7.89469C14.1441 8.13239 14.5103 8.24778 14.8787 8.21548L14.8786 8.2155Z" fill="#949BA5"/>
</g>
<defs>
<clipPath id="clip0">
<rect width="28" height="28" fill="white" transform="translate(0.186157 2.45679) rotate(-5)"/>
</clipPath>
</defs>
</svg>
