<svg width="104" height="21" viewBox="0 0 104 21" fill="none" xmlns="http://www.w3.org/2000/svg">
<path d="M14.3839 7.31339L9.58961 3.11042C9.15011 2.71732 8.58116 2.5 7.99152 2.5C7.40188 2.5 6.83292 2.71732 6.39343 3.11042L1.59917 7.31339C1.34537 7.54037 1.14283 7.81883 1.00506 8.1302C0.867279 8.44158 0.797418 8.77874 0.800125 9.11923V16.1029C0.800125 16.7386 1.05268 17.3483 1.50223 17.7979C1.95178 18.2474 2.5615 18.5 3.19726 18.5H12.7858C13.4215 18.5 14.0313 18.2474 14.4808 17.7979C14.9304 17.3483 15.1829 16.7386 15.1829 16.1029V9.11123C15.1845 8.77209 15.1141 8.43647 14.9763 8.12656C14.8386 7.81664 14.6367 7.53948 14.3839 7.31339ZM9.58961 16.9019H6.39343V12.9067C6.39343 12.6948 6.47762 12.4915 6.62747 12.3417C6.77732 12.1918 6.98056 12.1076 7.19247 12.1076H8.79056C9.00248 12.1076 9.20572 12.1918 9.35557 12.3417C9.50542 12.4915 9.58961 12.6948 9.58961 12.9067V16.9019ZM13.5848 16.1029C13.5848 16.3148 13.5006 16.518 13.3508 16.6679C13.2009 16.8177 12.9977 16.9019 12.7858 16.9019H11.1877V12.9067C11.1877 12.2709 10.9351 11.6612 10.4856 11.2117C10.036 10.7621 9.42632 10.5096 8.79056 10.5096H7.19247C6.55672 10.5096 5.947 10.7621 5.49745 11.2117C5.0479 11.6612 4.79534 12.2709 4.79534 12.9067V16.9019H3.19726C2.98534 16.9019 2.7821 16.8177 2.63225 16.6679C2.4824 16.518 2.39821 16.3148 2.39821 16.1029V9.11123C2.39836 8.99778 2.42266 8.88566 2.4695 8.78233C2.51634 8.679 2.58465 8.58683 2.66989 8.51195L7.46415 4.31697C7.60997 4.18887 7.79742 4.11822 7.99152 4.11822C8.18561 4.11822 8.37307 4.18887 8.51889 4.31697L13.3132 8.51195C13.3984 8.58683 13.4667 8.679 13.5135 8.78233C13.5604 8.88566 13.5847 8.99778 13.5848 9.11123V16.1029Z" fill="#949BA5"/>
<path d="M32.2854 13.2989C31.9937 13.0216 31.9937 12.5647 32.2855 12.2875L34.167 10.5001L32.2856 8.71268C31.9939 8.43544 31.9937 7.97849 32.2855 7.70123C32.5677 7.43308 33.0186 7.43311 33.3007 7.70118L35.7146 9.99445C35.8582 10.131 35.9333 10.3142 35.9333 10.5C35.9333 10.686 35.8581 10.8693 35.7144 11.0058L33.3007 13.299C33.0185 13.5671 32.5676 13.5671 32.2854 13.2989Z" fill="#3A4759"/>
<path d="M60.26 5.27L57.04 11.472V15H55.444V11.472L52.21 5.27H53.988L56.242 10.044L58.496 5.27H60.26ZM60.9946 11.108C60.9946 10.3333 61.1532 9.64733 61.4706 9.05C61.7972 8.45267 62.2359 7.99067 62.7866 7.664C63.3466 7.328 63.9626 7.16 64.6346 7.16C65.2412 7.16 65.7686 7.28133 66.2166 7.524C66.6739 7.75733 67.0379 8.05133 67.3086 8.406V7.286H68.9186V15H67.3086V13.852C67.0379 14.216 66.6692 14.5193 66.2026 14.762C65.7359 15.0047 65.2039 15.126 64.6066 15.126C63.9439 15.126 63.3372 14.958 62.7866 14.622C62.2359 14.2767 61.7972 13.8007 61.4706 13.194C61.1532 12.578 60.9946 11.8827 60.9946 11.108ZM67.3086 11.136C67.3086 10.604 67.1966 10.142 66.9726 9.75C66.7579 9.358 66.4732 9.05933 66.1186 8.854C65.7639 8.64867 65.3812 8.546 64.9706 8.546C64.5599 8.546 64.1772 8.64867 63.8226 8.854C63.4679 9.05 63.1786 9.344 62.9546 9.736C62.7399 10.1187 62.6326 10.576 62.6326 11.108C62.6326 11.64 62.7399 12.1067 62.9546 12.508C63.1786 12.9093 63.4679 13.2173 63.8226 13.432C64.1866 13.6373 64.5692 13.74 64.9706 13.74C65.3812 13.74 65.7639 13.6373 66.1186 13.432C66.4732 13.2267 66.7579 12.928 66.9726 12.536C67.1966 12.1347 67.3086 11.668 67.3086 11.136ZM72.6108 8.406C72.8442 8.014 73.1522 7.71067 73.5348 7.496C73.9268 7.272 74.3888 7.16 74.9208 7.16V8.812H74.5148C73.8895 8.812 73.4135 8.97067 73.0868 9.288C72.7695 9.60533 72.6108 10.156 72.6108 10.94V15H71.0148V7.286H72.6108V8.406ZM75.8559 11.108C75.8559 10.3333 76.0146 9.64733 76.3319 9.05C76.6586 8.45267 77.0972 7.99067 77.6479 7.664C78.2079 7.328 78.8286 7.16 79.5099 7.16C80.0139 7.16 80.5086 7.272 80.9939 7.496C81.4886 7.71067 81.8806 8 82.1699 8.364V4.64H83.7799V15H82.1699V13.838C81.9086 14.2113 81.5446 14.5193 81.0779 14.762C80.6206 15.0047 80.0932 15.126 79.4959 15.126C78.8239 15.126 78.2079 14.958 77.6479 14.622C77.0972 14.2767 76.6586 13.8007 76.3319 13.194C76.0146 12.578 75.8559 11.8827 75.8559 11.108ZM82.1699 11.136C82.1699 10.604 82.0579 10.142 81.8339 9.75C81.6192 9.358 81.3346 9.05933 80.9799 8.854C80.6252 8.64867 80.2426 8.546 79.8319 8.546C79.4212 8.546 79.0386 8.64867 78.6839 8.854C78.3292 9.05 78.0399 9.344 77.8159 9.736C77.6012 10.1187 77.4939 10.576 77.4939 11.108C77.4939 11.64 77.6012 12.1067 77.8159 12.508C78.0399 12.9093 78.3292 13.2173 78.6839 13.432C79.0479 13.6373 79.4306 13.74 79.8319 13.74C80.2426 13.74 80.6252 13.6373 80.9799 13.432C81.3346 13.2267 81.6192 12.928 81.8339 12.536C82.0579 12.1347 82.1699 11.668 82.1699 11.136ZM87.4722 7.286V15H85.8762V7.286H87.4722ZM98.9056 7.16C99.5122 7.16 100.054 7.286 100.53 7.538C101.015 7.79 101.393 8.16333 101.664 8.658C101.944 9.15267 102.084 9.75 102.084 10.45V15H100.502V10.688C100.502 9.99733 100.329 9.47 99.9836 9.106C99.6382 8.73267 99.1669 8.546 98.5696 8.546C97.9722 8.546 97.4962 8.73267 97.1416 9.106C96.7962 9.47 96.6236 9.99733 96.6236 10.688V15H95.0416V10.688C95.0416 9.99733 94.8689 9.47 94.5236 9.106C94.1782 8.73267 93.7069 8.546 93.1096 8.546C92.5122 8.546 92.0362 8.73267 91.6816 9.106C91.3362 9.47 91.1636 9.99733 91.1636 10.688V15H89.5676V7.286H91.1636V8.168C91.4249 7.85067 91.7562 7.60333 92.1576 7.426C92.5589 7.24867 92.9882 7.16 93.4456 7.16C94.0616 7.16 94.6122 7.29067 95.0976 7.552C95.5829 7.81333 95.9562 8.19133 96.2176 8.686C96.4509 8.21933 96.8149 7.85067 97.3096 7.58C97.8042 7.3 98.3362 7.16 98.9056 7.16Z" fill="#3A4759"/>
</svg>
