<svg width="1110" height="100" viewBox="0 0 1110 100" fill="none" xmlns="http://www.w3.org/2000/svg">
<rect x="0.5" y="0.5" width="1109" height="99" rx="5.5" fill="#4C3572" stroke="#2A1849"/>
<rect x="890.5" y="23.5" width="189" height="53" rx="26.5" stroke="white"/>
<mask id="mask0" mask-type="alpha" maskUnits="userSpaceOnUse" x="890" y="23" width="190" height="54">
<rect x="890.5" y="23.5" width="189" height="53" rx="26.5" fill="white" stroke="white"/>
</mask>
<g mask="url(#mask0)">
<path d="M932.85 55L929.294 50.646V55H927.334V45.228H929.294V49.61L932.85 45.228H935.216L931.184 50.072L935.328 55H932.85ZM940.061 55.126C939.315 55.126 938.643 54.9627 938.045 54.636C937.448 54.3 936.977 53.8287 936.631 53.222C936.295 52.6153 936.127 51.9153 936.127 51.122C936.127 50.3287 936.3 49.6287 936.645 49.022C937 48.4153 937.481 47.9487 938.087 47.622C938.694 47.286 939.371 47.118 940.117 47.118C940.864 47.118 941.541 47.286 942.147 47.622C942.754 47.9487 943.23 48.4153 943.575 49.022C943.93 49.6287 944.107 50.3287 944.107 51.122C944.107 51.9153 943.925 52.6153 943.561 53.222C943.207 53.8287 942.721 54.3 942.105 54.636C941.499 54.9627 940.817 55.126 940.061 55.126ZM940.061 53.418C940.416 53.418 940.747 53.334 941.055 53.166C941.373 52.9887 941.625 52.7273 941.811 52.382C941.998 52.0367 942.091 51.6167 942.091 51.122C942.091 50.3847 941.895 49.82 941.503 49.428C941.121 49.0267 940.649 48.826 940.089 48.826C939.529 48.826 939.058 49.0267 938.675 49.428C938.302 49.82 938.115 50.3847 938.115 51.122C938.115 51.8593 938.297 52.4287 938.661 52.83C939.035 53.222 939.501 53.418 940.061 53.418ZM949.843 47.132C950.767 47.132 951.514 47.426 952.083 48.014C952.652 48.5927 952.937 49.4047 952.937 50.45V55H950.977V50.716C950.977 50.1 950.823 49.6287 950.515 49.302C950.207 48.966 949.787 48.798 949.255 48.798C948.714 48.798 948.284 48.966 947.967 49.302C947.659 49.6287 947.505 50.1 947.505 50.716V55H945.545V47.244H947.505V48.21C947.766 47.874 948.098 47.6127 948.499 47.426C948.91 47.23 949.358 47.132 949.843 47.132ZM962.123 47.244V55H960.149V54.02C959.897 54.356 959.566 54.622 959.155 54.818C958.754 55.0047 958.315 55.098 957.839 55.098C957.232 55.098 956.696 54.972 956.229 54.72C955.762 54.4587 955.394 54.0807 955.123 53.586C954.862 53.082 954.731 52.4847 954.731 51.794V47.244H956.691V51.514C956.691 52.13 956.845 52.606 957.153 52.942C957.461 53.2687 957.881 53.432 958.413 53.432C958.954 53.432 959.379 53.2687 959.687 52.942C959.995 52.606 960.149 52.13 960.149 51.514V47.244H962.123ZM967.641 55.63C968.154 55.63 968.583 55.7607 968.929 56.022C969.283 56.2833 969.461 56.6613 969.461 57.156C969.461 57.66 969.279 58.0473 968.915 58.318C968.56 58.5887 968.121 58.724 967.599 58.724H965.611V57.576H967.277C967.501 57.576 967.669 57.5433 967.781 57.478C967.902 57.4127 967.963 57.296 967.963 57.128C967.963 56.96 967.902 56.8433 967.781 56.778C967.669 56.722 967.501 56.694 967.277 56.694H966.409V55.084C965.606 54.9813 964.953 54.6967 964.449 54.23C963.945 53.7633 963.674 53.2033 963.637 52.55H965.611C965.648 52.8487 965.793 53.096 966.045 53.292C966.306 53.488 966.628 53.586 967.011 53.586C967.384 53.586 967.673 53.5113 967.879 53.362C968.093 53.2127 968.201 53.0213 968.201 52.788C968.201 52.536 968.07 52.3493 967.809 52.228C967.557 52.0973 967.151 51.9573 966.591 51.808C966.012 51.668 965.536 51.5233 965.163 51.374C964.799 51.2247 964.481 50.996 964.211 50.688C963.949 50.38 963.819 49.9647 963.819 49.442C963.819 49.0127 963.94 48.6207 964.183 48.266C964.435 47.9113 964.789 47.6313 965.247 47.426C965.713 47.2207 966.259 47.118 966.885 47.118C967.809 47.118 968.546 47.3513 969.097 47.818C969.647 48.2753 969.951 48.896 970.007 49.68H968.131C968.103 49.372 967.972 49.1293 967.739 48.952C967.515 48.7653 967.211 48.672 966.829 48.672C966.474 48.672 966.199 48.7373 966.003 48.868C965.816 48.9987 965.723 49.1807 965.723 49.414C965.723 49.6753 965.853 49.876 966.115 50.016C966.376 50.1467 966.782 50.282 967.333 50.422C967.893 50.562 968.355 50.7067 968.719 50.856C969.083 51.0053 969.395 51.2387 969.657 51.556C969.927 51.864 970.067 52.2747 970.077 52.788C970.077 53.3853 969.857 53.894 969.419 54.314C968.989 54.734 968.397 54.9907 967.641 55.084V55.63ZM981.318 47.132C982.27 47.132 983.035 47.426 983.614 48.014C984.202 48.5927 984.496 49.4047 984.496 50.45V55H982.536V50.716C982.536 50.1093 982.382 49.6473 982.074 49.33C981.766 49.0033 981.346 48.84 980.814 48.84C980.282 48.84 979.857 49.0033 979.54 49.33C979.232 49.6473 979.078 50.1093 979.078 50.716V55H977.118V50.716C977.118 50.1093 976.964 49.6473 976.656 49.33C976.348 49.0033 975.928 48.84 975.396 48.84C974.854 48.84 974.425 49.0033 974.108 49.33C973.8 49.6473 973.646 50.1093 973.646 50.716V55H971.686V47.244H973.646V48.182C973.898 47.8553 974.22 47.5987 974.612 47.412C975.013 47.2253 975.452 47.132 975.928 47.132C976.534 47.132 977.076 47.2627 977.552 47.524C978.028 47.776 978.396 48.14 978.658 48.616C978.91 48.168 979.274 47.8087 979.75 47.538C980.235 47.2673 980.758 47.132 981.318 47.132ZM985.852 51.094C985.852 50.31 986.006 49.6147 986.314 49.008C986.631 48.4013 987.056 47.9347 987.588 47.608C988.129 47.2813 988.731 47.118 989.394 47.118C989.972 47.118 990.476 47.2347 990.906 47.468C991.344 47.7013 991.694 47.9953 991.956 48.35V47.244H993.93V55H991.956V53.866C991.704 54.23 991.354 54.5333 990.906 54.776C990.467 55.0093 989.958 55.126 989.38 55.126C988.726 55.126 988.129 54.958 987.588 54.622C987.056 54.286 986.631 53.8147 986.314 53.208C986.006 52.592 985.852 51.8873 985.852 51.094ZM991.956 51.122C991.956 50.646 991.862 50.24 991.676 49.904C991.489 49.5587 991.237 49.2973 990.92 49.12C990.602 48.9333 990.262 48.84 989.898 48.84C989.534 48.84 989.198 48.9287 988.89 49.106C988.582 49.2833 988.33 49.5447 988.134 49.89C987.947 50.226 987.854 50.6273 987.854 51.094C987.854 51.5607 987.947 51.9713 988.134 52.326C988.33 52.6713 988.582 52.9373 988.89 53.124C989.207 53.3107 989.543 53.404 989.898 53.404C990.262 53.404 990.602 53.3153 990.92 53.138C991.237 52.9513 991.489 52.69 991.676 52.354C991.862 52.0087 991.956 51.598 991.956 51.122ZM1001.14 48.378C1001.39 48.0047 1001.74 47.7013 1002.18 47.468C1002.62 47.2347 1003.13 47.118 1003.7 47.118C1004.36 47.118 1004.96 47.2813 1005.49 47.608C1006.04 47.9347 1006.46 48.4013 1006.77 49.008C1007.09 49.6053 1007.24 50.3007 1007.24 51.094C1007.24 51.8873 1007.09 52.592 1006.77 53.208C1006.46 53.8147 1006.04 54.286 1005.49 54.622C1004.96 54.958 1004.36 55.126 1003.7 55.126C1003.12 55.126 1002.61 55.014 1002.18 54.79C1001.75 54.5567 1001.4 54.258 1001.14 53.894V55H999.18V44.64H1001.14V48.378ZM1005.24 51.094C1005.24 50.6273 1005.14 50.226 1004.95 49.89C1004.76 49.5447 1004.51 49.2833 1004.19 49.106C1003.88 48.9287 1003.55 48.84 1003.18 48.84C1002.83 48.84 1002.49 48.9333 1002.18 49.12C1001.87 49.2973 1001.62 49.5587 1001.42 49.904C1001.23 50.2493 1001.14 50.6553 1001.14 51.122C1001.14 51.5887 1001.23 51.9947 1001.42 52.34C1001.62 52.6853 1001.87 52.9513 1002.18 53.138C1002.49 53.3153 1002.83 53.404 1003.18 53.404C1003.55 53.404 1003.88 53.3107 1004.19 53.124C1004.51 52.9373 1004.76 52.6713 1004.95 52.326C1005.14 51.9807 1005.24 51.57 1005.24 51.094ZM1008.16 51.094C1008.16 50.31 1008.32 49.6147 1008.63 49.008C1008.94 48.4013 1009.37 47.9347 1009.9 47.608C1010.44 47.2813 1011.04 47.118 1011.71 47.118C1012.28 47.118 1012.79 47.2347 1013.22 47.468C1013.66 47.7013 1014.01 47.9953 1014.27 48.35V47.244H1016.24V55H1014.27V53.866C1014.02 54.23 1013.67 54.5333 1013.22 54.776C1012.78 55.0093 1012.27 55.126 1011.69 55.126C1011.04 55.126 1010.44 54.958 1009.9 54.622C1009.37 54.286 1008.94 53.8147 1008.63 53.208C1008.32 52.592 1008.16 51.8873 1008.16 51.094ZM1014.27 51.122C1014.27 50.646 1014.17 50.24 1013.99 49.904C1013.8 49.5587 1013.55 49.2973 1013.23 49.12C1012.91 48.9333 1012.57 48.84 1012.21 48.84C1011.85 48.84 1011.51 48.9287 1011.2 49.106C1010.89 49.2833 1010.64 49.5447 1010.45 49.89C1010.26 50.226 1010.17 50.6273 1010.17 51.094C1010.17 51.5607 1010.26 51.9713 1010.45 52.326C1010.64 52.6713 1010.89 52.9373 1011.2 53.124C1011.52 53.3107 1011.86 53.404 1012.21 53.404C1012.57 53.404 1012.91 53.3153 1013.23 53.138C1013.55 52.9513 1013.8 52.69 1013.99 52.354C1014.17 52.0087 1014.27 51.598 1014.27 51.122ZM1021.74 55.63C1022.25 55.63 1022.68 55.7607 1023.03 56.022C1023.38 56.2833 1023.56 56.6613 1023.56 57.156C1023.56 57.66 1023.38 58.0473 1023.01 58.318C1022.66 58.5887 1022.22 58.724 1021.7 58.724H1019.71V57.576H1021.38C1021.6 57.576 1021.77 57.5433 1021.88 57.478C1022 57.4127 1022.06 57.296 1022.06 57.128C1022.06 56.96 1022 56.8433 1021.88 56.778C1021.77 56.722 1021.6 56.694 1021.38 56.694H1020.51V55.084C1019.71 54.9813 1019.05 54.6967 1018.55 54.23C1018.04 53.7633 1017.77 53.2033 1017.74 52.55H1019.71C1019.75 52.8487 1019.89 53.096 1020.14 53.292C1020.41 53.488 1020.73 53.586 1021.11 53.586C1021.48 53.586 1021.77 53.5113 1021.98 53.362C1022.19 53.2127 1022.3 53.0213 1022.3 52.788C1022.3 52.536 1022.17 52.3493 1021.91 52.228C1021.66 52.0973 1021.25 51.9573 1020.69 51.808C1020.11 51.668 1019.64 51.5233 1019.26 51.374C1018.9 51.2247 1018.58 50.996 1018.31 50.688C1018.05 50.38 1017.92 49.9647 1017.92 49.442C1017.92 49.0127 1018.04 48.6207 1018.28 48.266C1018.53 47.9113 1018.89 47.6313 1019.35 47.426C1019.81 47.2207 1020.36 47.118 1020.98 47.118C1021.91 47.118 1022.65 47.3513 1023.2 47.818C1023.75 48.2753 1024.05 48.896 1024.11 49.68H1022.23C1022.2 49.372 1022.07 49.1293 1021.84 48.952C1021.61 48.7653 1021.31 48.672 1020.93 48.672C1020.57 48.672 1020.3 48.7373 1020.1 48.868C1019.92 48.9987 1019.82 49.1807 1019.82 49.414C1019.82 49.6753 1019.95 49.876 1020.21 50.016C1020.48 50.1467 1020.88 50.282 1021.43 50.422C1021.99 50.562 1022.45 50.7067 1022.82 50.856C1023.18 51.0053 1023.5 51.2387 1023.76 51.556C1024.03 51.864 1024.17 52.2747 1024.18 52.788C1024.18 53.3853 1023.96 53.894 1023.52 54.314C1023.09 54.734 1022.5 54.9907 1021.74 55.084V55.63ZM1027.75 44.64V55H1025.79V44.64H1027.75ZM1029.18 51.094C1029.18 50.31 1029.33 49.6147 1029.64 49.008C1029.96 48.4013 1030.38 47.9347 1030.91 47.608C1031.46 47.2813 1032.06 47.118 1032.72 47.118C1033.3 47.118 1033.8 47.2347 1034.23 47.468C1034.67 47.7013 1035.02 47.9953 1035.28 48.35V47.244H1037.26V55H1035.28V53.866C1035.03 54.23 1034.68 54.5333 1034.23 54.776C1033.79 55.0093 1033.28 55.126 1032.71 55.126C1032.05 55.126 1031.46 54.958 1030.91 54.622C1030.38 54.286 1029.96 53.8147 1029.64 53.208C1029.33 52.592 1029.18 51.8873 1029.18 51.094ZM1035.28 51.122C1035.28 50.646 1035.19 50.24 1035 49.904C1034.82 49.5587 1034.56 49.2973 1034.25 49.12C1033.93 48.9333 1033.59 48.84 1033.22 48.84C1032.86 48.84 1032.52 48.9287 1032.22 49.106C1031.91 49.2833 1031.66 49.5447 1031.46 49.89C1031.27 50.226 1031.18 50.6273 1031.18 51.094C1031.18 51.5607 1031.27 51.9713 1031.46 52.326C1031.66 52.6713 1031.91 52.9373 1032.22 53.124C1032.53 53.3107 1032.87 53.404 1033.22 53.404C1033.59 53.404 1033.93 53.3153 1034.25 53.138C1034.56 52.9513 1034.82 52.69 1035 52.354C1035.19 52.0087 1035.28 51.598 1035.28 51.122ZM1041.45 48.854V52.606C1041.45 52.8673 1041.51 53.0587 1041.63 53.18C1041.76 53.292 1041.98 53.348 1042.28 53.348H1043.19V55H1041.96C1040.3 55 1039.48 54.1973 1039.48 52.592V48.854H1038.55V47.244H1039.48V45.326H1041.45V47.244H1043.19V48.854H1041.45Z" fill="white"/>
</g>
<path d="M144.116 45.242C145.18 45.242 146.099 45.4427 146.874 45.844C147.658 46.236 148.255 46.8007 148.666 47.538C149.086 48.2753 149.296 49.1433 149.296 50.142C149.296 51.1407 149.086 52.0087 148.666 52.746C148.255 53.474 147.658 54.034 146.874 54.426C146.099 54.8087 145.18 55 144.116 55H141.078V45.242H144.116ZM144.116 53.95C145.376 53.95 146.337 53.6187 147 52.956C147.663 52.284 147.994 51.346 147.994 50.142C147.994 48.9287 147.658 47.9813 146.986 47.3C146.323 46.6187 145.367 46.278 144.116 46.278H142.352V53.95H144.116ZM151.634 46.082C151.392 46.082 151.186 45.998 151.018 45.83C150.85 45.662 150.766 45.4567 150.766 45.214C150.766 44.9713 150.85 44.766 151.018 44.598C151.186 44.43 151.392 44.346 151.634 44.346C151.868 44.346 152.064 44.43 152.222 44.598C152.39 44.766 152.474 44.9713 152.474 45.214C152.474 45.4567 152.39 45.662 152.222 45.83C152.064 45.998 151.868 46.082 151.634 46.082ZM152.25 47.328V55H150.976V47.328H152.25ZM155.696 44.64V55H154.422V44.64H155.696ZM164.867 50.87C164.867 51.1127 164.853 51.3693 164.825 51.64H158.693C158.74 52.396 158.996 52.9887 159.463 53.418C159.939 53.838 160.513 54.048 161.185 54.048C161.736 54.048 162.193 53.922 162.557 53.67C162.93 53.4087 163.192 53.0633 163.341 52.634H164.713C164.508 53.3713 164.097 53.9733 163.481 54.44C162.865 54.8973 162.1 55.126 161.185 55.126C160.457 55.126 159.804 54.9627 159.225 54.636C158.656 54.3093 158.208 53.8473 157.881 53.25C157.554 52.6433 157.391 51.9433 157.391 51.15C157.391 50.3567 157.55 49.6613 157.867 49.064C158.184 48.4667 158.628 48.0093 159.197 47.692C159.776 47.3653 160.438 47.202 161.185 47.202C161.913 47.202 162.557 47.3607 163.117 47.678C163.677 47.9953 164.106 48.434 164.405 48.994C164.713 49.5447 164.867 50.17 164.867 50.87ZM163.551 50.604C163.551 50.1187 163.444 49.7033 163.229 49.358C163.014 49.0033 162.72 48.7373 162.347 48.56C161.983 48.3733 161.577 48.28 161.129 48.28C160.485 48.28 159.934 48.4853 159.477 48.896C159.029 49.3067 158.772 49.876 158.707 50.604H163.551ZM167.823 48.574C168.047 48.1353 168.364 47.7947 168.775 47.552C169.195 47.3093 169.703 47.188 170.301 47.188V48.504H169.965C168.537 48.504 167.823 49.2787 167.823 50.828V55H166.549V47.328H167.823V48.574ZM174.487 55.126C173.899 55.126 173.372 55.028 172.905 54.832C172.439 54.6267 172.07 54.3467 171.799 53.992C171.529 53.628 171.379 53.2127 171.351 52.746H172.667C172.705 53.1287 172.882 53.4413 173.199 53.684C173.526 53.9267 173.951 54.048 174.473 54.048C174.959 54.048 175.341 53.9407 175.621 53.726C175.901 53.5113 176.041 53.2407 176.041 52.914C176.041 52.578 175.892 52.3307 175.593 52.172C175.295 52.004 174.833 51.8407 174.207 51.682C173.638 51.5327 173.171 51.3833 172.807 51.234C172.453 51.0753 172.145 50.8467 171.883 50.548C171.631 50.24 171.505 49.8387 171.505 49.344C171.505 48.952 171.622 48.5927 171.855 48.266C172.089 47.9393 172.42 47.6827 172.849 47.496C173.279 47.3 173.769 47.202 174.319 47.202C175.169 47.202 175.855 47.4167 176.377 47.846C176.9 48.2753 177.18 48.8633 177.217 49.61H175.943C175.915 49.2087 175.752 48.8867 175.453 48.644C175.164 48.4013 174.772 48.28 174.277 48.28C173.82 48.28 173.456 48.378 173.185 48.574C172.915 48.77 172.779 49.0267 172.779 49.344C172.779 49.596 172.859 49.806 173.017 49.974C173.185 50.1327 173.391 50.2633 173.633 50.366C173.885 50.4593 174.231 50.5667 174.669 50.688C175.22 50.8373 175.668 50.9867 176.013 51.136C176.359 51.276 176.653 51.4907 176.895 51.78C177.147 52.0693 177.278 52.4473 177.287 52.914C177.287 53.334 177.171 53.712 176.937 54.048C176.704 54.384 176.373 54.65 175.943 54.846C175.523 55.0327 175.038 55.126 174.487 55.126ZM186.086 50.87C186.086 51.1127 186.072 51.3693 186.044 51.64H179.912C179.958 52.396 180.215 52.9887 180.682 53.418C181.158 53.838 181.732 54.048 182.404 54.048C182.954 54.048 183.412 53.922 183.776 53.67C184.149 53.4087 184.41 53.0633 184.56 52.634H185.932C185.726 53.3713 185.316 53.9733 184.7 54.44C184.084 54.8973 183.318 55.126 182.404 55.126C181.676 55.126 181.022 54.9627 180.444 54.636C179.874 54.3093 179.426 53.8473 179.1 53.25C178.773 52.6433 178.61 51.9433 178.61 51.15C178.61 50.3567 178.768 49.6613 179.086 49.064C179.403 48.4667 179.846 48.0093 180.416 47.692C180.994 47.3653 181.657 47.202 182.404 47.202C183.132 47.202 183.776 47.3607 184.336 47.678C184.896 47.9953 185.325 48.434 185.624 48.994C185.932 49.5447 186.086 50.17 186.086 50.87ZM184.77 50.604C184.77 50.1187 184.662 49.7033 184.448 49.358C184.233 49.0033 183.939 48.7373 183.566 48.56C183.202 48.3733 182.796 48.28 182.348 48.28C181.704 48.28 181.153 48.4853 180.696 48.896C180.248 49.3067 179.991 49.876 179.926 50.604H184.77ZM191.505 47.188C192.439 47.188 193.195 47.4727 193.773 48.042C194.352 48.602 194.641 49.414 194.641 50.478V55H193.381V50.66C193.381 49.8947 193.19 49.3113 192.807 48.91C192.425 48.4993 191.902 48.294 191.239 48.294C190.567 48.294 190.031 48.504 189.629 48.924C189.237 49.344 189.041 49.9553 189.041 50.758V55H187.767V47.328H189.041V48.42C189.293 48.028 189.634 47.7247 190.063 47.51C190.502 47.2953 190.983 47.188 191.505 47.188ZM197.381 46.082C197.138 46.082 196.933 45.998 196.765 45.83C196.597 45.662 196.513 45.4567 196.513 45.214C196.513 44.9713 196.597 44.766 196.765 44.598C196.933 44.43 197.138 44.346 197.381 44.346C197.614 44.346 197.81 44.43 197.969 44.598C198.137 44.766 198.221 44.9713 198.221 45.214C198.221 45.4567 198.137 45.662 197.969 45.83C197.81 45.998 197.614 46.082 197.381 46.082ZM197.997 47.328V55H196.723V47.328H197.997ZM201.12 53.95H204.886V55H199.664V53.95L203.388 48.364H199.692V47.328H204.858V48.364L201.12 53.95ZM213.575 45.228C214.602 45.228 215.503 45.4287 216.277 45.83C217.061 46.2313 217.663 46.8053 218.083 47.552C218.513 48.2893 218.727 49.148 218.727 50.128C218.727 51.108 218.513 51.9667 218.083 52.704C217.663 53.432 217.061 53.9967 216.277 54.398C215.503 54.7993 214.602 55 213.575 55H210.159V45.228H213.575ZM213.505 53.334C214.532 53.334 215.325 53.054 215.885 52.494C216.445 51.934 216.725 51.1453 216.725 50.128C216.725 49.1107 216.445 48.3173 215.885 47.748C215.325 47.1693 214.532 46.88 213.505 46.88H212.119V53.334H213.505ZM223.639 55.126C222.892 55.126 222.22 54.9627 221.623 54.636C221.025 54.3 220.554 53.8287 220.209 53.222C219.873 52.6153 219.705 51.9153 219.705 51.122C219.705 50.3287 219.877 49.6287 220.223 49.022C220.577 48.4153 221.058 47.9487 221.665 47.622C222.271 47.286 222.948 47.118 223.695 47.118C224.441 47.118 225.118 47.286 225.725 47.622C226.331 47.9487 226.807 48.4153 227.153 49.022C227.507 49.6287 227.685 50.3287 227.685 51.122C227.685 51.9153 227.503 52.6153 227.139 53.222C226.784 53.8287 226.299 54.3 225.683 54.636C225.076 54.9627 224.395 55.126 223.639 55.126ZM223.639 53.418C223.993 53.418 224.325 53.334 224.633 53.166C224.95 52.9887 225.202 52.7273 225.389 52.382C225.575 52.0367 225.669 51.6167 225.669 51.122C225.669 50.3847 225.473 49.82 225.081 49.428C224.698 49.0267 224.227 48.826 223.667 48.826C223.107 48.826 222.635 49.0267 222.253 49.428C221.879 49.82 221.693 50.3847 221.693 51.122C221.693 51.8593 221.875 52.4287 222.239 52.83C222.612 53.222 223.079 53.418 223.639 53.418ZM231.082 48.364C231.334 48.0093 231.68 47.7153 232.118 47.482C232.566 47.2393 233.075 47.118 233.644 47.118C234.307 47.118 234.904 47.2813 235.436 47.608C235.978 47.9347 236.402 48.4013 236.71 49.008C237.028 49.6053 237.186 50.3007 237.186 51.094C237.186 51.8873 237.028 52.592 236.71 53.208C236.402 53.8147 235.978 54.286 235.436 54.622C234.904 54.958 234.307 55.126 233.644 55.126C233.075 55.126 232.571 55.0093 232.132 54.776C231.703 54.5427 231.353 54.2487 231.082 53.894V58.696H229.122V47.244H231.082V48.364ZM235.184 51.094C235.184 50.6273 235.086 50.226 234.89 49.89C234.704 49.5447 234.452 49.2833 234.134 49.106C233.826 48.9287 233.49 48.84 233.126 48.84C232.772 48.84 232.436 48.9333 232.118 49.12C231.81 49.2973 231.558 49.5587 231.362 49.904C231.176 50.2493 231.082 50.6553 231.082 51.122C231.082 51.5887 231.176 51.9947 231.362 52.34C231.558 52.6853 231.81 52.9513 232.118 53.138C232.436 53.3153 232.772 53.404 233.126 53.404C233.49 53.404 233.826 53.3107 234.134 53.124C234.452 52.9373 234.704 52.6713 234.89 52.326C235.086 51.9807 235.184 51.57 235.184 51.094ZM239.605 46.32C239.259 46.32 238.97 46.2127 238.737 45.998C238.513 45.774 238.401 45.4987 238.401 45.172C238.401 44.8453 238.513 44.5747 238.737 44.36C238.97 44.136 239.259 44.024 239.605 44.024C239.95 44.024 240.235 44.136 240.459 44.36C240.692 44.5747 240.809 44.8453 240.809 45.172C240.809 45.4987 240.692 45.774 240.459 45.998C240.235 46.2127 239.95 46.32 239.605 46.32ZM240.571 47.244V55H238.611V47.244H240.571ZM246.805 47.132C247.729 47.132 248.476 47.426 249.045 48.014C249.614 48.5927 249.899 49.4047 249.899 50.45V55H247.939V50.716C247.939 50.1 247.785 49.6287 247.477 49.302C247.169 48.966 246.749 48.798 246.217 48.798C245.676 48.798 245.246 48.966 244.929 49.302C244.621 49.6287 244.467 50.1 244.467 50.716V55H242.507V47.244H244.467V48.21C244.728 47.874 245.06 47.6127 245.461 47.426C245.872 47.23 246.32 47.132 246.805 47.132ZM254.801 47.118C255.38 47.118 255.888 47.2347 256.327 47.468C256.766 47.692 257.111 47.986 257.363 48.35V47.244H259.337V55.056C259.337 55.7747 259.192 56.414 258.903 56.974C258.614 57.5433 258.18 57.9913 257.601 58.318C257.022 58.654 256.322 58.822 255.501 58.822C254.4 58.822 253.494 58.5653 252.785 58.052C252.085 57.5387 251.688 56.8387 251.595 55.952H253.541C253.644 56.3067 253.863 56.5867 254.199 56.792C254.544 57.0067 254.96 57.114 255.445 57.114C256.014 57.114 256.476 56.9413 256.831 56.596C257.186 56.26 257.363 55.7467 257.363 55.056V53.852C257.111 54.216 256.761 54.5193 256.313 54.762C255.874 55.0047 255.37 55.126 254.801 55.126C254.148 55.126 253.55 54.958 253.009 54.622C252.468 54.286 252.038 53.8147 251.721 53.208C251.413 52.592 251.259 51.8873 251.259 51.094C251.259 50.31 251.413 49.6147 251.721 49.008C252.038 48.4013 252.463 47.9347 252.995 47.608C253.536 47.2813 254.138 47.118 254.801 47.118ZM257.363 51.122C257.363 50.646 257.27 50.24 257.083 49.904C256.896 49.5587 256.644 49.2973 256.327 49.12C256.01 48.9333 255.669 48.84 255.305 48.84C254.941 48.84 254.605 48.9287 254.297 49.106C253.989 49.2833 253.737 49.5447 253.541 49.89C253.354 50.226 253.261 50.6273 253.261 51.094C253.261 51.5607 253.354 51.9713 253.541 52.326C253.737 52.6713 253.989 52.9373 254.297 53.124C254.614 53.3107 254.95 53.404 255.305 53.404C255.669 53.404 256.01 53.3153 256.327 53.138C256.644 52.9513 256.896 52.69 257.083 52.354C257.27 52.0087 257.363 51.598 257.363 51.122ZM272.693 45.228V55H270.733V50.842H266.547V55H264.587V45.228H266.547V49.246H270.733V45.228H272.693ZM274.118 51.094C274.118 50.31 274.272 49.6147 274.58 49.008C274.898 48.4013 275.322 47.9347 275.854 47.608C276.396 47.2813 276.998 47.118 277.66 47.118C278.239 47.118 278.743 47.2347 279.172 47.468C279.611 47.7013 279.961 47.9953 280.222 48.35V47.244H282.196V55H280.222V53.866C279.97 54.23 279.62 54.5333 279.172 54.776C278.734 55.0093 278.225 55.126 277.646 55.126C276.993 55.126 276.396 54.958 275.854 54.622C275.322 54.286 274.898 53.8147 274.58 53.208C274.272 52.592 274.118 51.8873 274.118 51.094ZM280.222 51.122C280.222 50.646 280.129 50.24 279.942 49.904C279.756 49.5587 279.504 49.2973 279.186 49.12C278.869 48.9333 278.528 48.84 278.164 48.84C277.8 48.84 277.464 48.9287 277.156 49.106C276.848 49.2833 276.596 49.5447 276.4 49.89C276.214 50.226 276.12 50.6273 276.12 51.094C276.12 51.5607 276.214 51.9713 276.4 52.326C276.596 52.6713 276.848 52.9373 277.156 53.124C277.474 53.3107 277.81 53.404 278.164 53.404C278.528 53.404 278.869 53.3153 279.186 53.138C279.504 52.9513 279.756 52.69 279.942 52.354C280.129 52.0087 280.222 51.598 280.222 51.122ZM287.667 48.854H286.309V55H284.321V48.854H283.439V47.244H284.321V46.852C284.321 45.9 284.591 45.2 285.133 44.752C285.674 44.304 286.491 44.094 287.583 44.122V45.774C287.107 45.7647 286.775 45.844 286.589 46.012C286.402 46.18 286.309 46.4833 286.309 46.922V47.244H287.667V48.854ZM290.981 47.244V55H289.021V47.244H290.981ZM294.789 53.39H298.247V55H292.563V53.418L295.951 48.854H292.577V47.244H298.205V48.826L294.789 53.39ZM299.261 51.094C299.261 50.31 299.415 49.6147 299.723 49.008C300.04 48.4013 300.465 47.9347 300.997 47.608C301.538 47.2813 302.14 47.118 302.803 47.118C303.381 47.118 303.885 47.2347 304.315 47.468C304.753 47.7013 305.103 47.9953 305.365 48.35V47.244H307.339V55H305.365V53.866C305.113 54.23 304.763 54.5333 304.315 54.776C303.876 55.0093 303.367 55.126 302.789 55.126C302.135 55.126 301.538 54.958 300.997 54.622C300.465 54.286 300.04 53.8147 299.723 53.208C299.415 52.592 299.261 51.8873 299.261 51.094ZM305.365 51.122C305.365 50.646 305.271 50.24 305.085 49.904C304.898 49.5587 304.646 49.2973 304.329 49.12C304.011 48.9333 303.671 48.84 303.307 48.84C302.943 48.84 302.607 48.9287 302.299 49.106C301.991 49.2833 301.739 49.5447 301.543 49.89C301.356 50.226 301.263 50.6273 301.263 51.094C301.263 51.5607 301.356 51.9713 301.543 52.326C301.739 52.6713 301.991 52.9373 302.299 53.124C302.616 53.3107 302.952 53.404 303.307 53.404C303.671 53.404 304.011 53.3153 304.329 53.138C304.646 52.9513 304.898 52.69 305.085 52.354C305.271 52.0087 305.365 51.598 305.365 51.122ZM314.521 45.228V51.276C314.521 51.9387 314.694 52.4473 315.039 52.802C315.384 53.1473 315.87 53.32 316.495 53.32C317.13 53.32 317.62 53.1473 317.965 52.802C318.31 52.4473 318.483 51.9387 318.483 51.276V45.228H320.457V51.262C320.457 52.0927 320.275 52.7973 319.911 53.376C319.556 53.9453 319.076 54.3747 318.469 54.664C317.872 54.9533 317.204 55.098 316.467 55.098C315.739 55.098 315.076 54.9533 314.479 54.664C313.891 54.3747 313.424 53.9453 313.079 53.376C312.734 52.7973 312.561 52.0927 312.561 51.262V45.228H314.521ZM324.143 53.39H327.601V55H321.917V53.418L325.305 48.854H321.931V47.244H327.559V48.826L324.143 53.39ZM338.75 47.132C339.702 47.132 340.468 47.426 341.046 48.014C341.634 48.5927 341.928 49.4047 341.928 50.45V55H339.968V50.716C339.968 50.1093 339.814 49.6473 339.506 49.33C339.198 49.0033 338.778 48.84 338.246 48.84C337.714 48.84 337.29 49.0033 336.972 49.33C336.664 49.6473 336.51 50.1093 336.51 50.716V55H334.55V50.716C334.55 50.1093 334.396 49.6473 334.088 49.33C333.78 49.0033 333.36 48.84 332.828 48.84C332.287 48.84 331.858 49.0033 331.54 49.33C331.232 49.6473 331.078 50.1093 331.078 50.716V55H329.118V47.244H331.078V48.182C331.33 47.8553 331.652 47.5987 332.044 47.412C332.446 47.2253 332.884 47.132 333.36 47.132C333.967 47.132 334.508 47.2627 334.984 47.524C335.46 47.776 335.829 48.14 336.09 48.616C336.342 48.168 336.706 47.8087 337.182 47.538C337.668 47.2673 338.19 47.132 338.75 47.132ZM343.284 51.094C343.284 50.31 343.438 49.6147 343.746 49.008C344.064 48.4013 344.488 47.9347 345.02 47.608C345.562 47.2813 346.164 47.118 346.826 47.118C347.405 47.118 347.909 47.2347 348.338 47.468C348.777 47.7013 349.127 47.9953 349.388 48.35V47.244H351.362V55H349.388V53.866C349.136 54.23 348.786 54.5333 348.338 54.776C347.9 55.0093 347.391 55.126 346.812 55.126C346.159 55.126 345.562 54.958 345.02 54.622C344.488 54.286 344.064 53.8147 343.746 53.208C343.438 52.592 343.284 51.8873 343.284 51.094ZM349.388 51.122C349.388 50.646 349.295 50.24 349.108 49.904C348.922 49.5587 348.67 49.2973 348.352 49.12C348.035 48.9333 347.694 48.84 347.33 48.84C346.966 48.84 346.63 48.9287 346.322 49.106C346.014 49.2833 345.762 49.5447 345.566 49.89C345.38 50.226 345.286 50.6273 345.286 51.094C345.286 51.5607 345.38 51.9713 345.566 52.326C345.762 52.6713 346.014 52.9373 346.322 53.124C346.64 53.3107 346.976 53.404 347.33 53.404C347.694 53.404 348.035 53.3153 348.352 53.138C348.67 52.9513 348.922 52.69 349.108 52.354C349.295 52.0087 349.388 51.598 349.388 51.122ZM357.575 47.132C358.499 47.132 359.245 47.426 359.815 48.014C360.384 48.5927 360.669 49.4047 360.669 50.45V55H358.709V50.716C358.709 50.1 358.555 49.6287 358.247 49.302C357.939 48.966 357.519 48.798 356.987 48.798C356.445 48.798 356.016 48.966 355.699 49.302C355.391 49.6287 355.237 50.1 355.237 50.716V55H353.277V47.244H355.237V48.21C355.498 47.874 355.829 47.6127 356.231 47.426C356.641 47.23 357.089 47.132 357.575 47.132ZM364.492 44.64V55H362.532V44.64H364.492ZM365.925 51.094C365.925 50.31 366.079 49.6147 366.387 49.008C366.704 48.4013 367.129 47.9347 367.661 47.608C368.202 47.2813 368.804 47.118 369.467 47.118C370.046 47.118 370.55 47.2347 370.979 47.468C371.418 47.7013 371.768 47.9953 372.029 48.35V47.244H374.003V55H372.029V53.866C371.777 54.23 371.427 54.5333 370.979 54.776C370.54 55.0093 370.032 55.126 369.453 55.126C368.8 55.126 368.202 54.958 367.661 54.622C367.129 54.286 366.704 53.8147 366.387 53.208C366.079 52.592 365.925 51.8873 365.925 51.094ZM372.029 51.122C372.029 50.646 371.936 50.24 371.749 49.904C371.562 49.5587 371.31 49.2973 370.993 49.12C370.676 48.9333 370.335 48.84 369.971 48.84C369.607 48.84 369.271 48.9287 368.963 49.106C368.655 49.2833 368.403 49.5447 368.207 49.89C368.02 50.226 367.927 50.6273 367.927 51.094C367.927 51.5607 368.02 51.9713 368.207 52.326C368.403 52.6713 368.655 52.9373 368.963 53.124C369.28 53.3107 369.616 53.404 369.971 53.404C370.335 53.404 370.676 53.3153 370.993 53.138C371.31 52.9513 371.562 52.69 371.749 52.354C371.936 52.0087 372.029 51.598 372.029 51.122ZM377.877 48.448C378.129 48.0373 378.456 47.7153 378.857 47.482C379.268 47.2487 379.735 47.132 380.257 47.132V49.19H379.739C379.123 49.19 378.657 49.3347 378.339 49.624C378.031 49.9133 377.877 50.4173 377.877 51.136V55H375.917V47.244H377.877V48.448ZM383.621 47.244V55H381.661V47.244H383.621ZM395.27 47.132C396.222 47.132 396.987 47.426 397.566 48.014C398.154 48.5927 398.448 49.4047 398.448 50.45V55H396.488V50.716C396.488 50.1093 396.334 49.6473 396.026 49.33C395.718 49.0033 395.298 48.84 394.766 48.84C394.234 48.84 393.809 49.0033 393.492 49.33C393.184 49.6473 393.03 50.1093 393.03 50.716V55H391.07V50.716C391.07 50.1093 390.916 49.6473 390.608 49.33C390.3 49.0033 389.88 48.84 389.348 48.84C388.807 48.84 388.377 49.0033 388.06 49.33C387.752 49.6473 387.598 50.1093 387.598 50.716V55H385.638V47.244H387.598V48.182C387.85 47.8553 388.172 47.5987 388.564 47.412C388.965 47.2253 389.404 47.132 389.88 47.132C390.487 47.132 391.028 47.2627 391.504 47.524C391.98 47.776 392.349 48.14 392.61 48.616C392.862 48.168 393.226 47.8087 393.702 47.538C394.187 47.2673 394.71 47.132 395.27 47.132ZM402.352 47.244V55H400.392V47.244H402.352ZM406.16 53.39H409.618V55H403.934V53.418L407.322 48.854H403.948V47.244H409.576V48.826L406.16 53.39ZM410.632 51.094C410.632 50.31 410.786 49.6147 411.094 49.008C411.411 48.4013 411.836 47.9347 412.368 47.608C412.909 47.2813 413.511 47.118 414.174 47.118C414.753 47.118 415.257 47.2347 415.686 47.468C416.125 47.7013 416.475 47.9953 416.736 48.35V47.244H418.71V55H416.736V53.866C416.484 54.23 416.134 54.5333 415.686 54.776C415.247 55.0093 414.739 55.126 414.16 55.126C413.507 55.126 412.909 54.958 412.368 54.622C411.836 54.286 411.411 53.8147 411.094 53.208C410.786 52.592 410.632 51.8873 410.632 51.094ZM416.736 51.122C416.736 50.646 416.643 50.24 416.456 49.904C416.269 49.5587 416.017 49.2973 415.7 49.12C415.383 48.9333 415.042 48.84 414.678 48.84C414.314 48.84 413.978 48.9287 413.67 49.106C413.362 49.2833 413.11 49.5447 412.914 49.89C412.727 50.226 412.634 50.6273 412.634 51.094C412.634 51.5607 412.727 51.9713 412.914 52.326C413.11 52.6713 413.362 52.9373 413.67 53.124C413.987 53.3107 414.323 53.404 414.678 53.404C415.042 53.404 415.383 53.3153 415.7 53.138C416.017 52.9513 416.269 52.69 416.456 52.354C416.643 52.0087 416.736 51.598 416.736 51.122ZM423.456 51.094C423.456 50.31 423.61 49.6147 423.918 49.008C424.235 48.4013 424.665 47.9347 425.206 47.608C425.747 47.2813 426.349 47.118 427.012 47.118C427.516 47.118 427.997 47.23 428.454 47.454C428.911 47.6687 429.275 47.958 429.546 48.322V44.64H431.534V55H429.546V53.852C429.303 54.2347 428.963 54.5427 428.524 54.776C428.085 55.0093 427.577 55.126 426.998 55.126C426.345 55.126 425.747 54.958 425.206 54.622C424.665 54.286 424.235 53.8147 423.918 53.208C423.61 52.592 423.456 51.8873 423.456 51.094ZM429.56 51.122C429.56 50.646 429.467 50.24 429.28 49.904C429.093 49.5587 428.841 49.2973 428.524 49.12C428.207 48.9333 427.866 48.84 427.502 48.84C427.138 48.84 426.802 48.9287 426.494 49.106C426.186 49.2833 425.934 49.5447 425.738 49.89C425.551 50.226 425.458 50.6273 425.458 51.094C425.458 51.5607 425.551 51.9713 425.738 52.326C425.934 52.6713 426.186 52.9373 426.494 53.124C426.811 53.3107 427.147 53.404 427.502 53.404C427.866 53.404 428.207 53.3153 428.524 53.138C428.841 52.9513 429.093 52.69 429.28 52.354C429.467 52.0087 429.56 51.598 429.56 51.122ZM432.944 51.094C432.944 50.31 433.098 49.6147 433.406 49.008C433.724 48.4013 434.148 47.9347 434.68 47.608C435.222 47.2813 435.824 47.118 436.486 47.118C437.065 47.118 437.569 47.2347 437.998 47.468C438.437 47.7013 438.787 47.9953 439.048 48.35V47.244H441.022V55H439.048V53.866C438.796 54.23 438.446 54.5333 437.998 54.776C437.56 55.0093 437.051 55.126 436.472 55.126C435.819 55.126 435.222 54.958 434.68 54.622C434.148 54.286 433.724 53.8147 433.406 53.208C433.098 52.592 432.944 51.8873 432.944 51.094ZM439.048 51.122C439.048 50.646 438.955 50.24 438.768 49.904C438.582 49.5587 438.33 49.2973 438.012 49.12C437.695 48.9333 437.354 48.84 436.99 48.84C436.626 48.84 436.29 48.9287 435.982 49.106C435.674 49.2833 435.422 49.5447 435.226 49.89C435.04 50.226 434.946 50.6273 434.946 51.094C434.946 51.5607 435.04 51.9713 435.226 52.326C435.422 52.6713 435.674 52.9373 435.982 53.124C436.3 53.3107 436.636 53.404 436.99 53.404C437.354 53.404 437.695 53.3153 438.012 53.138C438.33 52.9513 438.582 52.69 438.768 52.354C438.955 52.0087 439.048 51.598 439.048 51.122ZM447.235 47.132C448.159 47.132 448.905 47.426 449.475 48.014C450.044 48.5927 450.329 49.4047 450.329 50.45V55H448.369V50.716C448.369 50.1 448.215 49.6287 447.907 49.302C447.599 48.966 447.179 48.798 446.647 48.798C446.105 48.798 445.676 48.966 445.359 49.302C445.051 49.6287 444.897 50.1 444.897 50.716V55H442.937V47.244H444.897V48.21C445.158 47.874 445.489 47.6127 445.891 47.426C446.301 47.23 446.749 47.132 447.235 47.132ZM454.237 47.244V55H452.277V47.244H454.237ZM459.837 55.63C460.35 55.63 460.78 55.7607 461.125 56.022C461.48 56.2833 461.657 56.6613 461.657 57.156C461.657 57.66 461.475 58.0473 461.111 58.318C460.756 58.5887 460.318 58.724 459.795 58.724H457.807V57.576H459.473C459.697 57.576 459.865 57.5433 459.977 57.478C460.098 57.4127 460.159 57.296 460.159 57.128C460.159 56.96 460.098 56.8433 459.977 56.778C459.865 56.722 459.697 56.694 459.473 56.694H458.605V55.084C457.802 54.9813 457.149 54.6967 456.645 54.23C456.141 53.7633 455.87 53.2033 455.833 52.55H457.807C457.844 52.8487 457.989 53.096 458.241 53.292C458.502 53.488 458.824 53.586 459.207 53.586C459.58 53.586 459.87 53.5113 460.075 53.362C460.29 53.2127 460.397 53.0213 460.397 52.788C460.397 52.536 460.266 52.3493 460.005 52.228C459.753 52.0973 459.347 51.9573 458.787 51.808C458.208 51.668 457.732 51.5233 457.359 51.374C456.995 51.2247 456.678 50.996 456.407 50.688C456.146 50.38 456.015 49.9647 456.015 49.442C456.015 49.0127 456.136 48.6207 456.379 48.266C456.631 47.9113 456.986 47.6313 457.443 47.426C457.91 47.2207 458.456 47.118 459.081 47.118C460.005 47.118 460.742 47.3513 461.293 47.818C461.844 48.2753 462.147 48.896 462.203 49.68H460.327C460.299 49.372 460.168 49.1293 459.935 48.952C459.711 48.7653 459.408 48.672 459.025 48.672C458.67 48.672 458.395 48.7373 458.199 48.868C458.012 48.9987 457.919 49.1807 457.919 49.414C457.919 49.6753 458.05 49.876 458.311 50.016C458.572 50.1467 458.978 50.282 459.529 50.422C460.089 50.562 460.551 50.7067 460.915 50.856C461.279 51.0053 461.592 51.2387 461.853 51.556C462.124 51.864 462.264 52.2747 462.273 52.788C462.273 53.3853 462.054 53.894 461.615 54.314C461.186 54.734 460.593 54.9907 459.837 55.084V55.63ZM463.378 51.094C463.378 50.31 463.532 49.6147 463.84 49.008C464.157 48.4013 464.582 47.9347 465.114 47.608C465.655 47.2813 466.257 47.118 466.92 47.118C467.499 47.118 468.003 47.2347 468.432 47.468C468.871 47.7013 469.221 47.9953 469.482 48.35V47.244H471.456V55H469.482V53.866C469.23 54.23 468.88 54.5333 468.432 54.776C467.993 55.0093 467.485 55.126 466.906 55.126C466.253 55.126 465.655 54.958 465.114 54.622C464.582 54.286 464.157 53.8147 463.84 53.208C463.532 52.592 463.378 51.8873 463.378 51.094ZM469.482 51.122C469.482 50.646 469.389 50.24 469.202 49.904C469.015 49.5587 468.763 49.2973 468.446 49.12C468.129 48.9333 467.788 48.84 467.424 48.84C467.06 48.84 466.724 48.9287 466.416 49.106C466.108 49.2833 465.856 49.5447 465.66 49.89C465.473 50.226 465.38 50.6273 465.38 51.094C465.38 51.5607 465.473 51.9713 465.66 52.326C465.856 52.6713 466.108 52.9373 466.416 53.124C466.733 53.3107 467.069 53.404 467.424 53.404C467.788 53.404 468.129 53.3153 468.446 53.138C468.763 52.9513 469.015 52.69 469.202 52.354C469.389 52.0087 469.482 51.598 469.482 51.122ZM475.33 48.378C475.582 48.0047 475.928 47.7013 476.366 47.468C476.814 47.2347 477.323 47.118 477.892 47.118C478.555 47.118 479.152 47.2813 479.684 47.608C480.226 47.9347 480.65 48.4013 480.958 49.008C481.276 49.6053 481.434 50.3007 481.434 51.094C481.434 51.8873 481.276 52.592 480.958 53.208C480.65 53.8147 480.226 54.286 479.684 54.622C479.152 54.958 478.555 55.126 477.892 55.126C477.314 55.126 476.805 55.014 476.366 54.79C475.937 54.5567 475.592 54.258 475.33 53.894V55H473.37V44.64H475.33V48.378ZM479.432 51.094C479.432 50.6273 479.334 50.226 479.138 49.89C478.952 49.5447 478.7 49.2833 478.382 49.106C478.074 48.9287 477.738 48.84 477.374 48.84C477.02 48.84 476.684 48.9333 476.366 49.12C476.058 49.2973 475.806 49.5587 475.61 49.904C475.424 50.2493 475.33 50.6553 475.33 51.122C475.33 51.5887 475.424 51.9947 475.61 52.34C475.806 52.6853 476.058 52.9513 476.366 53.138C476.684 53.3153 477.02 53.404 477.374 53.404C477.738 53.404 478.074 53.3107 478.382 53.124C478.7 52.9373 478.952 52.6713 479.138 52.326C479.334 51.9807 479.432 51.57 479.432 51.094ZM483.853 46.32C483.507 46.32 483.218 46.2127 482.985 45.998C482.761 45.774 482.649 45.4987 482.649 45.172C482.649 44.8453 482.761 44.5747 482.985 44.36C483.218 44.136 483.507 44.024 483.853 44.024C484.198 44.024 484.483 44.136 484.707 44.36C484.94 44.5747 485.057 44.8453 485.057 45.172C485.057 45.4987 484.94 45.774 484.707 45.998C484.483 46.2127 484.198 46.32 483.853 46.32ZM484.819 47.244V55H482.859V47.244H484.819ZM488.715 44.64V55H486.755V44.64H488.715ZM491.646 46.32C491.3 46.32 491.011 46.2127 490.778 45.998C490.554 45.774 490.442 45.4987 490.442 45.172C490.442 44.8453 490.554 44.5747 490.778 44.36C491.011 44.136 491.3 44.024 491.646 44.024C491.991 44.024 492.276 44.136 492.5 44.36C492.733 44.5747 492.85 44.8453 492.85 45.172C492.85 45.4987 492.733 45.774 492.5 45.998C492.276 46.2127 491.991 46.32 491.646 46.32ZM492.612 47.244V55H490.652V47.244H492.612ZM496.508 48.448C496.76 48.0373 497.087 47.7153 497.488 47.482C497.899 47.2487 498.365 47.132 498.888 47.132V49.19H498.37C497.754 49.19 497.287 49.3347 496.97 49.624C496.662 49.9133 496.508 50.4173 496.508 51.136V55H494.548V47.244H496.508V48.448ZM502.35 52.942L500.712 56.876H499.452L500.362 52.942H502.35ZM516.833 47.188C517.431 47.188 517.963 47.314 518.429 47.566C518.896 47.8087 519.265 48.1773 519.535 48.672C519.806 49.1667 519.941 49.7687 519.941 50.478V55H518.681V50.66C518.681 49.8947 518.49 49.3113 518.107 48.91C517.734 48.4993 517.225 48.294 516.581 48.294C515.919 48.294 515.391 48.5087 514.999 48.938C514.607 49.358 514.411 49.9693 514.411 50.772V55H513.151V50.66C513.151 49.8947 512.96 49.3113 512.577 48.91C512.204 48.4993 511.695 48.294 511.051 48.294C510.389 48.294 509.861 48.5087 509.469 48.938C509.077 49.358 508.881 49.9693 508.881 50.772V55H507.607V47.328H508.881V48.434C509.133 48.0327 509.469 47.7247 509.889 47.51C510.319 47.2953 510.79 47.188 511.303 47.188C511.947 47.188 512.517 47.3327 513.011 47.622C513.506 47.9113 513.875 48.336 514.117 48.896C514.332 48.3547 514.687 47.9347 515.181 47.636C515.676 47.3373 516.227 47.188 516.833 47.188ZM529.031 50.87C529.031 51.1127 529.017 51.3693 528.989 51.64H522.857C522.904 52.396 523.16 52.9887 523.627 53.418C524.103 53.838 524.677 54.048 525.349 54.048C525.9 54.048 526.357 53.922 526.721 53.67C527.094 53.4087 527.356 53.0633 527.505 52.634H528.877C528.672 53.3713 528.261 53.9733 527.645 54.44C527.029 54.8973 526.264 55.126 525.349 55.126C524.621 55.126 523.968 54.9627 523.389 54.636C522.82 54.3093 522.372 53.8473 522.045 53.25C521.718 52.6433 521.555 51.9433 521.555 51.15C521.555 50.3567 521.714 49.6613 522.031 49.064C522.348 48.4667 522.792 48.0093 523.361 47.692C523.94 47.3653 524.602 47.202 525.349 47.202C526.077 47.202 526.721 47.3607 527.281 47.678C527.841 47.9953 528.27 48.434 528.569 48.994C528.877 49.5447 529.031 50.17 529.031 50.87ZM527.715 50.604C527.715 50.1187 527.608 49.7033 527.393 49.358C527.178 49.0033 526.884 48.7373 526.511 48.56C526.147 48.3733 525.741 48.28 525.293 48.28C524.649 48.28 524.098 48.4853 523.641 48.896C523.193 49.3067 522.936 49.876 522.871 50.604H527.715ZM531.987 48.574C532.211 48.1353 532.528 47.7947 532.939 47.552C533.359 47.3093 533.867 47.188 534.465 47.188V48.504H534.129C532.701 48.504 531.987 49.2787 531.987 50.828V55H530.713V47.328H531.987V48.574ZM535.459 51.136C535.459 50.352 535.618 49.666 535.935 49.078C536.253 48.4807 536.687 48.0187 537.237 47.692C537.797 47.3653 538.418 47.202 539.099 47.202C539.771 47.202 540.355 47.3467 540.849 47.636C541.344 47.9253 541.713 48.2893 541.955 48.728V47.328H543.243V55H541.955V53.572C541.703 54.02 541.325 54.3933 540.821 54.692C540.327 54.9813 539.748 55.126 539.085 55.126C538.404 55.126 537.788 54.958 537.237 54.622C536.687 54.286 536.253 53.8147 535.935 53.208C535.618 52.6013 535.459 51.9107 535.459 51.136ZM541.955 51.15C541.955 50.5713 541.839 50.0673 541.605 49.638C541.372 49.2087 541.055 48.882 540.653 48.658C540.261 48.4247 539.827 48.308 539.351 48.308C538.875 48.308 538.441 48.42 538.049 48.644C537.657 48.868 537.345 49.1947 537.111 49.624C536.878 50.0533 536.761 50.5573 536.761 51.136C536.761 51.724 536.878 52.2373 537.111 52.676C537.345 53.1053 537.657 53.4367 538.049 53.67C538.441 53.894 538.875 54.006 539.351 54.006C539.827 54.006 540.261 53.894 540.653 53.67C541.055 53.4367 541.372 53.1053 541.605 52.676C541.839 52.2373 541.955 51.7287 541.955 51.15ZM549.68 55L546.67 51.612V55H545.396V44.64H546.67V50.73L549.624 47.328H551.402L547.79 51.15L551.416 55H549.68ZM563.334 50.87C563.334 51.1127 563.32 51.3693 563.292 51.64H557.16C557.207 52.396 557.463 52.9887 557.93 53.418C558.406 53.838 558.98 54.048 559.652 54.048C560.203 54.048 560.66 53.922 561.024 53.67C561.397 53.4087 561.659 53.0633 561.808 52.634H563.18C562.975 53.3713 562.564 53.9733 561.948 54.44C561.332 54.8973 560.567 55.126 559.652 55.126C558.924 55.126 558.271 54.9627 557.692 54.636C557.123 54.3093 556.675 53.8473 556.348 53.25C556.021 52.6433 555.858 51.9433 555.858 51.15C555.858 50.3567 556.017 49.6613 556.334 49.064C556.651 48.4667 557.095 48.0093 557.664 47.692C558.243 47.3653 558.905 47.202 559.652 47.202C560.38 47.202 561.024 47.3607 561.584 47.678C562.144 47.9953 562.573 48.434 562.872 48.994C563.18 49.5447 563.334 50.17 563.334 50.87ZM562.018 50.604C562.018 50.1187 561.911 49.7033 561.696 49.358C561.481 49.0033 561.187 48.7373 560.814 48.56C560.45 48.3733 560.044 48.28 559.596 48.28C558.952 48.28 558.401 48.4853 557.944 48.896C557.496 49.3067 557.239 49.876 557.174 50.604H562.018ZM566.57 48.378V52.9C566.57 53.2733 566.649 53.5393 566.808 53.698C566.966 53.8473 567.242 53.922 567.633 53.922H568.572V55H567.424C566.714 55 566.182 54.8367 565.828 54.51C565.473 54.1833 565.296 53.6467 565.296 52.9V48.378H564.302V47.328H565.296V45.396H566.57V47.328H568.572V48.378H566.57ZM571.669 48.378V52.9C571.669 53.2733 571.748 53.5393 571.907 53.698C572.066 53.8473 572.341 53.922 572.733 53.922H573.671V55H572.523C571.814 55 571.282 54.8367 570.927 54.51C570.572 54.1833 570.395 53.6467 570.395 52.9V48.378H569.401V47.328H570.395V45.396H571.669V47.328H573.671V48.378H571.669ZM575.873 46.082C575.63 46.082 575.425 45.998 575.257 45.83C575.089 45.662 575.005 45.4567 575.005 45.214C575.005 44.9713 575.089 44.766 575.257 44.598C575.425 44.43 575.63 44.346 575.873 44.346C576.106 44.346 576.302 44.43 576.461 44.598C576.629 44.766 576.713 44.9713 576.713 45.214C576.713 45.4567 576.629 45.662 576.461 45.83C576.302 45.998 576.106 46.082 575.873 46.082ZM576.489 47.328V55H575.215V47.328H576.489ZM582.944 55L579.934 51.612V55H578.66V44.64H579.934V50.73L582.888 47.328H584.666L581.054 51.15L584.68 55H582.944ZM587.139 44.64V55H585.865V44.64H587.139ZM596.31 50.87C596.31 51.1127 596.296 51.3693 596.268 51.64H590.136C590.183 52.396 590.44 52.9887 590.906 53.418C591.382 53.838 591.956 54.048 592.628 54.048C593.179 54.048 593.636 53.922 594 53.67C594.374 53.4087 594.635 53.0633 594.784 52.634H596.156C595.951 53.3713 595.54 53.9733 594.924 54.44C594.308 54.8973 593.543 55.126 592.628 55.126C591.9 55.126 591.247 54.9627 590.668 54.636C590.099 54.3093 589.651 53.8473 589.324 53.25C588.998 52.6433 588.834 51.9433 588.834 51.15C588.834 50.3567 588.993 49.6613 589.31 49.064C589.628 48.4667 590.071 48.0093 590.64 47.692C591.219 47.3653 591.882 47.202 592.628 47.202C593.356 47.202 594 47.3607 594.56 47.678C595.12 47.9953 595.55 48.434 595.848 48.994C596.156 49.5447 596.31 50.17 596.31 50.87ZM594.994 50.604C594.994 50.1187 594.887 49.7033 594.672 49.358C594.458 49.0033 594.164 48.7373 593.79 48.56C593.426 48.3733 593.02 48.28 592.572 48.28C591.928 48.28 591.378 48.4853 590.92 48.896C590.472 49.3067 590.216 49.876 590.15 50.604H594.994ZM599.266 48.574C599.49 48.1353 599.807 47.7947 600.218 47.552C600.638 47.3093 601.147 47.188 601.744 47.188V48.504H601.408C599.98 48.504 599.266 49.2787 599.266 50.828V55H597.992V47.328H599.266V48.574ZM603.873 46.082C603.63 46.082 603.425 45.998 603.257 45.83C603.089 45.662 603.005 45.4567 603.005 45.214C603.005 44.9713 603.089 44.766 603.257 44.598C603.425 44.43 603.63 44.346 603.873 44.346C604.106 44.346 604.302 44.43 604.461 44.598C604.629 44.766 604.713 44.9713 604.713 45.214C604.713 45.4567 604.629 45.662 604.461 45.83C604.302 45.998 604.106 46.082 603.873 46.082ZM604.489 47.328V55H603.215V47.328H604.489ZM610.398 47.188C611.331 47.188 612.087 47.4727 612.666 48.042C613.245 48.602 613.534 49.414 613.534 50.478V55H612.274V50.66C612.274 49.8947 612.083 49.3113 611.7 48.91C611.317 48.4993 610.795 48.294 610.132 48.294C609.46 48.294 608.923 48.504 608.522 48.924C608.13 49.344 607.934 49.9553 607.934 50.758V55H606.66V47.328H607.934V48.42C608.186 48.028 608.527 47.7247 608.956 47.51C609.395 47.2953 609.875 47.188 610.398 47.188ZM616.273 46.082C616.03 46.082 615.825 45.998 615.657 45.83C615.489 45.662 615.405 45.4567 615.405 45.214C615.405 44.9713 615.489 44.766 615.657 44.598C615.825 44.43 616.03 44.346 616.273 44.346C616.506 44.346 616.702 44.43 616.861 44.598C617.029 44.766 617.113 44.9713 617.113 45.214C617.113 45.4567 617.029 45.662 616.861 45.83C616.702 45.998 616.506 46.082 616.273 46.082ZM616.889 47.328V55H615.615V47.328H616.889ZM620.012 53.95H623.778V55H618.556V53.95L622.28 48.364H618.584V47.328H623.75V48.364L620.012 53.95ZM626.09 46.082C625.847 46.082 625.642 45.998 625.474 45.83C625.306 45.662 625.222 45.4567 625.222 45.214C625.222 44.9713 625.306 44.766 625.474 44.598C625.642 44.43 625.847 44.346 626.09 44.346C626.323 44.346 626.519 44.43 626.678 44.598C626.846 44.766 626.93 44.9713 626.93 45.214C626.93 45.4567 626.846 45.662 626.678 45.83C626.519 45.998 626.323 46.082 626.09 46.082ZM626.706 47.328V55H625.432V47.328H626.706ZM639.609 50.87C639.609 51.1127 639.595 51.3693 639.567 51.64H633.435C633.482 52.396 633.739 52.9887 634.205 53.418C634.681 53.838 635.255 54.048 635.927 54.048C636.478 54.048 636.935 53.922 637.299 53.67C637.673 53.4087 637.934 53.0633 638.083 52.634H639.455C639.25 53.3713 638.839 53.9733 638.223 54.44C637.607 54.8973 636.842 55.126 635.927 55.126C635.199 55.126 634.546 54.9627 633.967 54.636C633.398 54.3093 632.95 53.8473 632.623 53.25C632.297 52.6433 632.133 51.9433 632.133 51.15C632.133 50.3567 632.292 49.6613 632.609 49.064C632.927 48.4667 633.37 48.0093 633.939 47.692C634.518 47.3653 635.181 47.202 635.927 47.202C636.655 47.202 637.299 47.3607 637.859 47.678C638.419 47.9953 638.849 48.434 639.147 48.994C639.455 49.5447 639.609 50.17 639.609 50.87ZM638.293 50.604C638.293 50.1187 638.186 49.7033 637.971 49.358C637.757 49.0033 637.463 48.7373 637.089 48.56C636.725 48.3733 636.319 48.28 635.871 48.28C635.227 48.28 634.677 48.4853 634.219 48.896C633.771 49.3067 633.515 49.876 633.449 50.604H638.293ZM645.029 47.188C645.962 47.188 646.718 47.4727 647.297 48.042C647.876 48.602 648.165 49.414 648.165 50.478V55H646.905V50.66C646.905 49.8947 646.714 49.3113 646.331 48.91C645.948 48.4993 645.426 48.294 644.763 48.294C644.091 48.294 643.554 48.504 643.153 48.924C642.761 49.344 642.565 49.9553 642.565 50.758V55H641.291V47.328H642.565V48.42C642.817 48.028 643.158 47.7247 643.587 47.51C644.026 47.2953 644.506 47.188 645.029 47.188ZM657.786 47.188C658.365 47.188 658.888 47.314 659.354 47.566C659.821 47.8087 660.185 48.1773 660.446 48.672C660.717 49.1667 660.852 49.7687 660.852 50.478V55H659.592V50.66C659.592 49.8947 659.401 49.3113 659.018 48.91C658.636 48.4993 658.113 48.294 657.45 48.294C656.778 48.294 656.242 48.504 655.84 48.924C655.448 49.344 655.252 49.9553 655.252 50.758V55H653.978V44.64H655.252V48.42C655.504 48.028 655.85 47.7247 656.288 47.51C656.736 47.2953 657.236 47.188 657.786 47.188ZM664.207 47.328V55H662.933V47.328H664.207ZM667.331 53.95H671.097V55H665.875V53.95L669.599 48.364H665.903V47.328H671.069V48.364L667.331 53.95ZM674.024 44.64V55H672.75V44.64H674.024ZM677.469 47.328V55H676.195V47.328H677.469ZM688.889 52.914C688.889 53.5113 688.665 54.0153 688.217 54.426C687.769 54.8273 687.172 55.056 686.425 55.112V55.812C686.976 55.8027 687.414 55.9193 687.741 56.162C688.068 56.4047 688.231 56.75 688.231 57.198C688.231 57.6367 688.072 57.9867 687.755 58.248C687.438 58.5093 687.027 58.64 686.523 58.64H684.913V57.814H686.271C686.579 57.814 686.803 57.7673 686.943 57.674C687.092 57.5807 687.167 57.422 687.167 57.198C687.167 56.9833 687.092 56.8293 686.943 56.736C686.803 56.6427 686.579 56.596 686.271 56.596H685.571V55.098C684.815 55.014 684.199 54.7573 683.723 54.328C683.247 53.8987 682.99 53.3713 682.953 52.746H684.269C684.306 53.1287 684.484 53.4413 684.801 53.684C685.128 53.9267 685.552 54.048 686.075 54.048C686.56 54.048 686.943 53.9407 687.223 53.726C687.503 53.5113 687.643 53.2407 687.643 52.914C687.643 52.578 687.494 52.3307 687.195 52.172C686.896 52.004 686.434 51.8407 685.809 51.682C685.24 51.5327 684.773 51.3833 684.409 51.234C684.054 51.0753 683.746 50.8467 683.485 50.548C683.233 50.24 683.107 49.8387 683.107 49.344C683.107 48.952 683.224 48.5927 683.457 48.266C683.69 47.9393 684.022 47.6827 684.451 47.496C684.88 47.3 685.37 47.202 685.921 47.202C686.77 47.202 687.456 47.4167 687.979 47.846C688.502 48.2753 688.782 48.8633 688.819 49.61H687.545C687.517 49.2087 687.354 48.8867 687.055 48.644C686.766 48.4013 686.374 48.28 685.879 48.28C685.422 48.28 685.058 48.378 684.787 48.574C684.516 48.77 684.381 49.0267 684.381 49.344C684.381 49.596 684.46 49.806 684.619 49.974C684.787 50.1327 684.992 50.2633 685.235 50.366C685.487 50.4593 685.832 50.5667 686.271 50.688C686.822 50.8373 687.27 50.9867 687.615 51.136C687.96 51.276 688.254 51.4907 688.497 51.78C688.749 52.0693 688.88 52.4473 688.889 52.914ZM697.687 50.87C697.687 51.1127 697.673 51.3693 697.645 51.64H691.513C691.56 52.396 691.817 52.9887 692.283 53.418C692.759 53.838 693.333 54.048 694.005 54.048C694.556 54.048 695.013 53.922 695.377 53.67C695.751 53.4087 696.012 53.0633 696.161 52.634H697.533C697.328 53.3713 696.917 53.9733 696.301 54.44C695.685 54.8973 694.92 55.126 694.005 55.126C693.277 55.126 692.624 54.9627 692.045 54.636C691.476 54.3093 691.028 53.8473 690.701 53.25C690.375 52.6433 690.211 51.9433 690.211 51.15C690.211 50.3567 690.37 49.6613 690.687 49.064C691.005 48.4667 691.448 48.0093 692.017 47.692C692.596 47.3653 693.259 47.202 694.005 47.202C694.733 47.202 695.377 47.3607 695.937 47.678C696.497 47.9953 696.927 48.434 697.225 48.994C697.533 49.5447 697.687 50.17 697.687 50.87ZM696.371 50.604C696.371 50.1187 696.264 49.7033 696.049 49.358C695.835 49.0033 695.541 48.7373 695.167 48.56C694.803 48.3733 694.397 48.28 693.949 48.28C693.305 48.28 692.755 48.4853 692.297 48.896C691.849 49.3067 691.593 49.876 691.527 50.604H696.371ZM703.653 55L700.643 51.612V55H699.369V44.64H700.643V50.73L703.597 47.328H705.375L701.763 51.15L705.389 55H703.653ZM707.232 46.082C706.989 46.082 706.784 45.998 706.616 45.83C706.448 45.662 706.364 45.4567 706.364 45.214C706.364 44.9713 706.448 44.766 706.616 44.598C706.784 44.43 706.989 44.346 707.232 44.346C707.465 44.346 707.661 44.43 707.82 44.598C707.988 44.766 708.072 44.9713 708.072 45.214C708.072 45.4567 707.988 45.662 707.82 45.83C707.661 45.998 707.465 46.082 707.232 46.082ZM707.848 47.328V55H706.574V47.328H707.848ZM711.293 44.64V55H710.019V44.64H711.293ZM712.989 51.136C712.989 50.352 713.147 49.666 713.465 49.078C713.782 48.4807 714.216 48.0187 714.767 47.692C715.327 47.3653 715.952 47.202 716.643 47.202C717.24 47.202 717.795 47.342 718.309 47.622C718.822 47.8927 719.214 48.252 719.485 48.7V44.64H720.773V55H719.485V53.558C719.233 54.0153 718.859 54.3933 718.365 54.692C717.87 54.9813 717.291 55.126 716.629 55.126C715.947 55.126 715.327 54.958 714.767 54.622C714.216 54.286 713.782 53.8147 713.465 53.208C713.147 52.6013 712.989 51.9107 712.989 51.136ZM719.485 51.15C719.485 50.5713 719.368 50.0673 719.135 49.638C718.901 49.2087 718.584 48.882 718.183 48.658C717.791 48.4247 717.357 48.308 716.881 48.308C716.405 48.308 715.971 48.42 715.579 48.644C715.187 48.868 714.874 49.1947 714.641 49.624C714.407 50.0533 714.291 50.5573 714.291 51.136C714.291 51.724 714.407 52.2373 714.641 52.676C714.874 53.1053 715.187 53.4367 715.579 53.67C715.971 53.894 716.405 54.006 716.881 54.006C717.357 54.006 717.791 53.894 718.183 53.67C718.584 53.4367 718.901 53.1053 719.135 52.676C719.368 52.2373 719.485 51.7287 719.485 51.15ZM729.926 50.87C729.926 51.1127 729.912 51.3693 729.884 51.64H723.752C723.798 52.396 724.055 52.9887 724.522 53.418C724.998 53.838 725.572 54.048 726.244 54.048C726.794 54.048 727.252 53.922 727.616 53.67C727.989 53.4087 728.25 53.0633 728.4 52.634H729.772C729.566 53.3713 729.156 53.9733 728.54 54.44C727.924 54.8973 727.158 55.126 726.244 55.126C725.516 55.126 724.862 54.9627 724.284 54.636C723.714 54.3093 723.266 53.8473 722.94 53.25C722.613 52.6433 722.45 51.9433 722.45 51.15C722.45 50.3567 722.608 49.6613 722.926 49.064C723.243 48.4667 723.686 48.0093 724.256 47.692C724.834 47.3653 725.497 47.202 726.244 47.202C726.972 47.202 727.616 47.3607 728.176 47.678C728.736 47.9953 729.165 48.434 729.464 48.994C729.772 49.5447 729.926 50.17 729.926 50.87ZM728.61 50.604C728.61 50.1187 728.502 49.7033 728.288 49.358C728.073 49.0033 727.779 48.7373 727.406 48.56C727.042 48.3733 726.636 48.28 726.188 48.28C725.544 48.28 724.993 48.4853 724.536 48.896C724.088 49.3067 723.831 49.876 723.766 50.604H728.61ZM734.864 51.15C734.864 50.3567 735.022 49.666 735.34 49.078C735.657 48.4807 736.096 48.0187 736.656 47.692C737.225 47.3653 737.874 47.202 738.602 47.202C739.544 47.202 740.319 47.4307 740.926 47.888C741.542 48.3453 741.948 48.98 742.144 49.792H740.772C740.641 49.3253 740.384 48.9567 740.002 48.686C739.628 48.4153 739.162 48.28 738.602 48.28C737.874 48.28 737.286 48.532 736.838 49.036C736.39 49.5307 736.166 50.2353 736.166 51.15C736.166 52.074 736.39 52.788 736.838 53.292C737.286 53.796 737.874 54.048 738.602 54.048C739.162 54.048 739.628 53.9173 740.002 53.656C740.375 53.3947 740.632 53.0213 740.772 52.536H742.144C741.938 53.32 741.528 53.95 740.912 54.426C740.296 54.8927 739.526 55.126 738.602 55.126C737.874 55.126 737.225 54.9627 736.656 54.636C736.096 54.3093 735.657 53.8473 735.34 53.25C735.022 52.6527 734.864 51.9527 734.864 51.15ZM750.844 50.87C750.844 51.1127 750.83 51.3693 750.802 51.64H744.67C744.716 52.396 744.973 52.9887 745.44 53.418C745.916 53.838 746.49 54.048 747.162 54.048C747.712 54.048 748.17 53.922 748.534 53.67C748.907 53.4087 749.168 53.0633 749.318 52.634H750.69C750.484 53.3713 750.074 53.9733 749.458 54.44C748.842 54.8973 748.076 55.126 747.162 55.126C746.434 55.126 745.78 54.9627 745.202 54.636C744.632 54.3093 744.184 53.8473 743.858 53.25C743.531 52.6433 743.368 51.9433 743.368 51.15C743.368 50.3567 743.526 49.6613 743.844 49.064C744.161 48.4667 744.604 48.0093 745.174 47.692C745.752 47.3653 746.415 47.202 747.162 47.202C747.89 47.202 748.534 47.3607 749.094 47.678C749.654 47.9953 750.083 48.434 750.382 48.994C750.69 49.5447 750.844 50.17 750.844 50.87ZM749.528 50.604C749.528 50.1187 749.42 49.7033 749.206 49.358C748.991 49.0033 748.697 48.7373 748.324 48.56C747.96 48.3733 747.554 48.28 747.106 48.28C746.462 48.28 745.911 48.4853 745.454 48.896C745.006 49.3067 744.749 49.876 744.684 50.604H749.528ZM755.381 53.824L757.761 47.328H759.119L756.109 55H754.625L751.615 47.328H752.987L755.381 53.824ZM759.897 51.136C759.897 50.352 760.056 49.666 760.373 49.078C760.69 48.4807 761.124 48.0187 761.675 47.692C762.235 47.3653 762.856 47.202 763.537 47.202C764.209 47.202 764.792 47.3467 765.287 47.636C765.782 47.9253 766.15 48.2893 766.393 48.728V47.328H767.681V55H766.393V53.572C766.141 54.02 765.763 54.3933 765.259 54.692C764.764 54.9813 764.186 55.126 763.523 55.126C762.842 55.126 762.226 54.958 761.675 54.622C761.124 54.286 760.69 53.8147 760.373 53.208C760.056 52.6013 759.897 51.9107 759.897 51.136ZM766.393 51.15C766.393 50.5713 766.276 50.0673 766.043 49.638C765.81 49.2087 765.492 48.882 765.091 48.658C764.699 48.4247 764.265 48.308 763.789 48.308C763.313 48.308 762.879 48.42 762.487 48.644C762.095 48.868 761.782 49.1947 761.549 49.624C761.316 50.0533 761.199 50.5573 761.199 51.136C761.199 51.724 761.316 52.2373 761.549 52.676C761.782 53.1053 762.095 53.4367 762.487 53.67C762.879 53.894 763.313 54.006 763.789 54.006C764.265 54.006 764.699 53.894 765.091 53.67C765.492 53.4367 765.81 53.1053 766.043 52.676C766.276 52.2373 766.393 51.7287 766.393 51.15ZM771.108 48.742C771.36 48.3033 771.733 47.9393 772.228 47.65C772.732 47.3513 773.315 47.202 773.978 47.202C774.659 47.202 775.275 47.3653 775.826 47.692C776.386 48.0187 776.825 48.4807 777.142 49.078C777.459 49.666 777.618 50.352 777.618 51.136C777.618 51.9107 777.459 52.6013 777.142 53.208C776.825 53.8147 776.386 54.286 775.826 54.622C775.275 54.958 774.659 55.126 773.978 55.126C773.325 55.126 772.746 54.9813 772.242 54.692C771.747 54.3933 771.369 54.0247 771.108 53.586V58.64H769.834V47.328H771.108V48.742ZM776.316 51.136C776.316 50.5573 776.199 50.0533 775.966 49.624C775.733 49.1947 775.415 48.868 775.014 48.644C774.622 48.42 774.188 48.308 773.712 48.308C773.245 48.308 772.811 48.4247 772.41 48.658C772.018 48.882 771.701 49.2133 771.458 49.652C771.225 50.0813 771.108 50.5807 771.108 51.15C771.108 51.7287 771.225 52.2373 771.458 52.676C771.701 53.1053 772.018 53.4367 772.41 53.67C772.811 53.894 773.245 54.006 773.712 54.006C774.188 54.006 774.622 53.894 775.014 53.67C775.415 53.4367 775.733 53.1053 775.966 52.676C776.199 52.2373 776.316 51.724 776.316 51.136ZM780.569 44.64V55H779.295V44.64H780.569ZM782.264 51.136C782.264 50.352 782.423 49.666 782.74 49.078C783.057 48.4807 783.491 48.0187 784.042 47.692C784.602 47.3653 785.223 47.202 785.904 47.202C786.576 47.202 787.159 47.3467 787.654 47.636C788.149 47.9253 788.517 48.2893 788.76 48.728V47.328H790.048V55H788.76V53.572C788.508 54.02 788.13 54.3933 787.626 54.692C787.131 54.9813 786.553 55.126 785.89 55.126C785.209 55.126 784.593 54.958 784.042 54.622C783.491 54.286 783.057 53.8147 782.74 53.208C782.423 52.6013 782.264 51.9107 782.264 51.136ZM788.76 51.15C788.76 50.5713 788.643 50.0673 788.41 49.638C788.177 49.2087 787.859 48.882 787.458 48.658C787.066 48.4247 786.632 48.308 786.156 48.308C785.68 48.308 785.246 48.42 784.854 48.644C784.462 48.868 784.149 49.1947 783.916 49.624C783.683 50.0533 783.566 50.5573 783.566 51.136C783.566 51.724 783.683 52.2373 783.916 52.676C784.149 53.1053 784.462 53.4367 784.854 53.67C785.246 53.894 785.68 54.006 786.156 54.006C786.632 54.006 787.066 53.894 787.458 53.67C787.859 53.4367 788.177 53.1053 788.41 52.676C788.643 52.2373 788.76 51.7287 788.76 51.15ZM798.809 47.328L794.189 58.612H792.873L794.385 54.916L791.291 47.328H792.705L795.113 53.544L797.493 47.328H798.809ZM799.614 51.136C799.614 50.352 799.772 49.666 800.09 49.078C800.407 48.4807 800.841 48.0187 801.392 47.692C801.952 47.3653 802.572 47.202 803.254 47.202C803.926 47.202 804.509 47.3467 805.004 47.636C805.498 47.9253 805.867 48.2893 806.11 48.728V47.328H807.398V55H806.11V53.572C805.858 54.02 805.48 54.3933 804.976 54.692C804.481 54.9813 803.902 55.126 803.24 55.126C802.558 55.126 801.942 54.958 801.392 54.622C800.841 54.286 800.407 53.8147 800.09 53.208C799.772 52.6013 799.614 51.9107 799.614 51.136ZM806.11 51.15C806.11 50.5713 805.993 50.0673 805.76 49.638C805.526 49.2087 805.209 48.882 804.808 48.658C804.416 48.4247 803.982 48.308 803.506 48.308C803.03 48.308 802.596 48.42 802.204 48.644C801.812 48.868 801.499 49.1947 801.266 49.624C801.032 50.0533 800.916 50.5573 800.916 51.136C800.916 51.724 801.032 52.2373 801.266 52.676C801.499 53.1053 801.812 53.4367 802.204 53.67C802.596 53.894 803.03 54.006 803.506 54.006C803.982 54.006 804.416 53.894 804.808 53.67C805.209 53.4367 805.526 53.1053 805.76 52.676C805.993 52.2373 806.11 51.7287 806.11 51.15ZM810.825 48.756C811.086 48.2987 811.469 47.9253 811.973 47.636C812.477 47.3467 813.051 47.202 813.695 47.202C814.385 47.202 815.006 47.3653 815.557 47.692C816.107 48.0187 816.541 48.4807 816.859 49.078C817.176 49.666 817.335 50.352 817.335 51.136C817.335 51.9107 817.176 52.6013 816.859 53.208C816.541 53.8147 816.103 54.286 815.543 54.622C814.992 54.958 814.376 55.126 813.695 55.126C813.032 55.126 812.449 54.9813 811.945 54.692C811.45 54.4027 811.077 54.034 810.825 53.586V55H809.551V44.64H810.825V48.756ZM816.033 51.136C816.033 50.5573 815.916 50.0533 815.683 49.624C815.449 49.1947 815.132 48.868 814.731 48.644C814.339 48.42 813.905 48.308 813.429 48.308C812.962 48.308 812.528 48.4247 812.127 48.658C811.735 48.882 811.417 49.2133 811.175 49.652C810.941 50.0813 810.825 50.5807 810.825 51.15C810.825 51.7287 810.941 52.2373 811.175 52.676C811.417 53.1053 811.735 53.4367 812.127 53.67C812.528 53.894 812.962 54.006 813.429 54.006C813.905 54.006 814.339 53.894 814.731 53.67C815.132 53.4367 815.449 53.1053 815.683 52.676C815.916 52.2373 816.033 51.724 816.033 51.136ZM819.67 46.082C819.427 46.082 819.222 45.998 819.054 45.83C818.886 45.662 818.802 45.4567 818.802 45.214C818.802 44.9713 818.886 44.766 819.054 44.598C819.222 44.43 819.427 44.346 819.67 44.346C819.903 44.346 820.099 44.43 820.258 44.598C820.426 44.766 820.51 44.9713 820.51 45.214C820.51 45.4567 820.426 45.662 820.258 45.83C820.099 45.998 819.903 46.082 819.67 46.082ZM820.286 47.328V55H819.012V47.328H820.286ZM823.731 44.64V55H822.457V44.64H823.731ZM826.56 46.082C826.318 46.082 826.112 45.998 825.944 45.83C825.776 45.662 825.692 45.4567 825.692 45.214C825.692 44.9713 825.776 44.766 825.944 44.598C826.112 44.43 826.318 44.346 826.56 44.346C826.794 44.346 826.99 44.43 827.148 44.598C827.316 44.766 827.4 44.9713 827.4 45.214C827.4 45.4567 827.316 45.662 827.148 45.83C826.99 45.998 826.794 46.082 826.56 46.082ZM827.176 47.328V55H825.902V47.328H827.176ZM830.622 48.574C830.846 48.1353 831.163 47.7947 831.574 47.552C831.994 47.3093 832.502 47.188 833.1 47.188V48.504H832.764C831.336 48.504 830.622 49.2787 830.622 50.828V55H829.348V47.328H830.622V48.574ZM835.228 46.082C834.986 46.082 834.78 45.998 834.612 45.83C834.444 45.662 834.36 45.4567 834.36 45.214C834.36 44.9713 834.444 44.766 834.612 44.598C834.78 44.43 834.986 44.346 835.228 44.346C835.462 44.346 835.658 44.43 835.816 44.598C835.984 44.766 836.068 44.9713 836.068 45.214C836.068 45.4567 835.984 45.662 835.816 45.83C835.658 45.998 835.462 46.082 835.228 46.082ZM835.844 47.328V55H834.57V47.328H835.844ZM838.968 53.95H842.734V55H837.512V53.95L841.236 48.364H837.54V47.328H842.706V48.364L838.968 53.95ZM844.793 55.084C844.55 55.084 844.345 55 844.177 54.832C844.009 54.664 843.925 54.4587 843.925 54.216C843.925 53.9733 844.009 53.768 844.177 53.6C844.345 53.432 844.55 53.348 844.793 53.348C845.026 53.348 845.222 53.432 845.381 53.6C845.549 53.768 845.633 53.9733 845.633 54.216C845.633 54.4587 845.549 54.664 845.381 54.832C845.222 55 845.026 55.084 844.793 55.084Z" fill="white"/>
<g filter="url(#filter0_d)">
<rect x="50" y="20" width="60" height="60" rx="30" fill="white"/>
</g>
<path d="M81.2 48.7998H74C73.6817 48.7998 73.3765 48.9263 73.1515 49.1513C72.9264 49.3764 72.8 49.6816 72.8 49.9998C72.8 50.3181 72.9264 50.6233 73.1515 50.8483C73.3765 51.0734 73.6817 51.1998 74 51.1998H81.2C81.5183 51.1998 81.8235 51.0734 82.0485 50.8483C82.2736 50.6233 82.4 50.3181 82.4 49.9998C82.4 49.6816 82.2736 49.3764 82.0485 49.1513C81.8235 48.9263 81.5183 48.7998 81.2 48.7998ZM86 43.9999H74C73.6817 43.9999 73.3765 44.1263 73.1515 44.3514C72.9264 44.5764 72.8 44.8816 72.8 45.1999C72.8 45.5182 72.9264 45.8234 73.1515 46.0484C73.3765 46.2735 73.6817 46.3999 74 46.3999H86C86.3183 46.3999 86.6235 46.2735 86.8485 46.0484C87.0736 45.8234 87.2 45.5182 87.2 45.1999C87.2 44.8816 87.0736 44.5764 86.8485 44.3514C86.6235 44.1263 86.3183 43.9999 86 43.9999ZM88.4 38H71.6C70.6452 38 69.7295 38.3793 69.0544 39.0544C68.3793 39.7295 68 40.6452 68 41.5999V53.5998C68 54.5545 68.3793 55.4702 69.0544 56.1453C69.7295 56.8205 70.6452 57.1997 71.6 57.1997H85.508L89.948 61.6517C90.0601 61.7629 90.1931 61.8509 90.3393 61.9106C90.4855 61.9703 90.6421 62.0006 90.8 61.9997C90.9574 62.0037 91.1136 61.9708 91.256 61.9037C91.4751 61.8136 91.6627 61.6608 91.7951 61.4643C91.9275 61.2678 91.9988 61.0366 92 60.7997V41.5999C92 40.6452 91.6207 39.7295 90.9456 39.0544C90.2705 38.3793 89.3548 38 88.4 38ZM89.6 57.9077L86.852 55.1478C86.7399 55.0365 86.6069 54.9486 86.4607 54.8888C86.3145 54.8291 86.1579 54.7989 86 54.7998H71.6C71.2817 54.7998 70.9765 54.6733 70.7515 54.4483C70.5264 54.2233 70.4 53.918 70.4 53.5998V41.5999C70.4 41.2817 70.5264 40.9765 70.7515 40.7514C70.9765 40.5264 71.2817 40.4 71.6 40.4H88.4C88.7183 40.4 89.0235 40.5264 89.2485 40.7514C89.4736 40.9765 89.6 41.2817 89.6 41.5999V57.9077Z" fill="#4C3572"/>
<defs>
<filter id="filter0_d" x="44" y="17" width="72" height="72" filterUnits="userSpaceOnUse" color-interpolation-filters="sRGB">
<feFlood flood-opacity="0" result="BackgroundImageFix"/>
<feColorMatrix in="SourceAlpha" type="matrix" values="0 0 0 0 0 0 0 0 0 0 0 0 0 0 0 0 0 0 127 0"/>
<feOffset dy="3"/>
<feGaussianBlur stdDeviation="3"/>
<feColorMatrix type="matrix" values="0 0 0 0 0.180502 0 0 0 0 0.0905208 0 0 0 0 0.329167 0 0 0 1 0"/>
<feBlend mode="normal" in2="BackgroundImageFix" result="effect1_dropShadow"/>
<feBlend mode="normal" in="SourceGraphic" in2="effect1_dropShadow" result="shape"/>
</filter>
</defs>
</svg>
