<svg width="16" height="29" viewBox="0 0 16 29" fill="none" xmlns="http://www.w3.org/2000/svg">
<path d="M11.5525 5.19315L14.8067 4.90844C15.0857 4.88404 15.2554 4.68181 15.231 4.40288L14.9056 0.683751C14.8812 0.404816 14.679 0.235129 14.4 0.259533L10.6809 0.584914C7.2407 0.885892 4.86508 3.71705 5.16606 7.15724L5.53211 11.3413L1.34809 11.7073C1.06916 11.7317 0.899471 11.9339 0.923875 12.2129L1.24926 15.932C1.27366 16.2109 1.47589 16.3806 1.75482 16.3562L5.93884 15.9902L7.037 28.5422C7.0614 28.8212 7.26363 28.9908 7.54256 28.9664L11.2617 28.6411C11.5406 28.6167 11.7103 28.4144 11.6859 28.1355L10.5877 15.5834L14.7718 15.2174C14.9577 15.2011 15.1274 14.9989 15.2041 14.8048L15.8085 11.0043C15.8004 10.9113 15.7841 10.7254 15.683 10.6405C15.5819 10.5557 15.4808 10.4709 15.2948 10.4871L10.181 10.9345L9.85564 7.2154C9.76616 6.19264 10.5298 5.28263 11.5525 5.19315Z" fill="#949BA5"/>
</svg>
