<svg width="29" height="30" viewBox="0 0 29 30" fill="none" xmlns="http://www.w3.org/2000/svg">
<path fill-rule="evenodd" clip-rule="evenodd" d="M13.168 0.943147C9.38022 1.27453 8.90669 1.33214 7.42506 1.53015C5.94652 1.72773 4.95329 2.05222 4.09634 2.47462C3.2104 2.91122 2.47435 3.45615 1.76679 4.29933C1.05929 5.14256 0.650441 5.96206 0.374316 6.91036C0.107136 7.82764 -0.0399386 8.8621 0.0222286 10.3525C0.0845003 11.846 0.10999 12.3224 0.441374 16.1101C0.772753 19.8978 0.830368 20.3713 1.02839 21.8529C1.22597 23.3315 1.55044 24.3247 1.97285 25.1816C2.40945 26.0676 2.95439 26.8036 3.79756 27.5112C4.64079 28.2187 5.46028 28.6275 6.40858 28.9037C7.32586 29.1708 8.36034 29.3179 9.85073 29.2558C11.3442 29.1935 11.8206 29.168 15.6083 28.8366C19.396 28.5052 19.8695 28.4476 21.3511 28.2496C22.8297 28.052 23.8229 27.7275 24.6798 27.3052C25.5658 26.8685 26.3018 26.3236 27.0094 25.4804C27.7169 24.6372 28.1257 23.8177 28.4019 22.8694C28.669 21.9521 28.8161 20.9176 28.754 19.4273C28.6917 17.9338 28.6662 17.4574 28.3348 13.6697C28.0034 9.88199 27.9458 9.40845 27.7478 7.92682C27.5502 6.44828 27.2257 5.45507 26.8034 4.59811C26.3667 3.71218 25.8218 2.97612 24.9786 2.26856C24.1354 1.56106 23.3159 1.15222 22.3676 0.876095C21.4503 0.608916 20.4158 0.461832 18.9255 0.523999C17.432 0.586271 16.9556 0.611768 13.168 0.943147ZM13.3878 3.45606C17.1117 3.13026 17.5541 3.1059 19.0306 3.04434C20.3958 2.98737 21.1541 3.14997 21.6623 3.29797C22.3354 3.49402 22.8265 3.7556 23.3572 4.20097C23.8879 4.64628 24.2308 5.08444 24.5407 5.7133C24.7747 6.18803 25.0665 6.90662 25.2475 8.26099C25.4433 9.72575 25.4961 10.1656 25.8219 13.8896C26.1477 17.6135 26.1721 18.0558 26.2336 19.5323C26.2906 20.8976 26.128 21.6559 25.98 22.1641C25.7839 22.8372 25.5224 23.3282 25.077 23.8589C24.6317 24.3897 24.1936 24.7326 23.5647 25.0425C23.09 25.2765 22.3713 25.5683 21.017 25.7493C19.5524 25.945 19.1126 25.9979 15.3885 26.3237C11.6642 26.6495 11.222 26.6739 9.74564 26.7354C8.38042 26.7924 7.62207 26.6298 7.11392 26.4818C6.44079 26.2857 5.94974 26.0242 5.41903 25.5788C4.88832 25.1335 4.54541 24.6953 4.23545 24.0665C4.00146 23.5917 3.70964 22.8731 3.52867 21.5188C3.33291 20.054 3.28009 19.6141 2.95429 15.8902C2.62849 12.1663 2.60412 11.7239 2.54256 10.2474C2.4856 8.8822 2.64819 8.12385 2.79619 7.6157C2.99224 6.94257 3.25381 6.45153 3.69918 5.92082C4.14449 5.39005 4.58266 5.04718 5.21152 4.73723C5.68625 4.50323 6.40484 4.21142 7.75921 4.03045C9.22397 3.83469 9.66385 3.78187 13.3878 3.45606ZM13.7616 7.72805C9.80613 8.0741 6.88022 11.5611 7.22628 15.5165C7.57232 19.4718 11.0593 22.3977 15.0147 22.0517C18.9701 21.7056 21.896 18.2187 21.5499 14.2633C21.2039 10.3079 17.7169 7.382 13.7616 7.72805ZM14.7949 19.5388C12.2273 19.7634 9.96382 17.8641 9.73919 15.2966C9.51456 12.7291 11.4138 10.4656 13.9814 10.241C16.5489 10.0163 18.8124 11.9156 19.037 14.4832C19.2616 17.0507 17.3624 19.3142 14.7949 19.5388ZM22.8552 6.64734C22.936 7.57165 22.2523 8.38648 21.328 8.46734C20.4037 8.54821 19.5888 7.8645 19.508 6.94018C19.4271 6.01586 20.1108 5.20099 21.0351 5.12012C21.9594 5.03926 22.7743 5.72302 22.8552 6.64734Z" fill="#949BA5"/>
</svg>
