<svg width="28" height="26" viewBox="0 0 28 26" fill="none" xmlns="http://www.w3.org/2000/svg">
<path fill-rule="evenodd" clip-rule="evenodd" d="M27.3 2.87242C26.3159 3.42882 25.24 3.841 24.0948 4.0833C25.2135 3.25459 26.0199 2.02518 26.3273 0.617803C25.2793 1.3862 24.0991 1.98175 22.8155 2.35797C21.6745 1.30909 20.1239 0.727435 18.4769 0.871533C15.3187 1.14784 12.9863 3.99951 13.2698 7.23981C13.31 7.69983 13.3982 8.14213 13.534 8.56334C8.75644 8.73432 4.33641 6.76947 1.20124 3.4623C0.784517 4.37509 0.591185 5.40876 0.685191 6.48326C0.863217 8.5181 2.03057 10.2262 3.65838 11.1445C2.71939 11.1979 1.81193 11.0083 1.00097 10.6394L1.00728 10.7116C1.25611 13.5556 3.43652 15.7553 6.10308 16.0634C5.63542 16.243 5.13554 16.3561 4.61327 16.4018C4.24489 16.4341 3.88161 16.4303 3.52686 16.392C4.45931 18.6586 6.71983 20.1712 9.22875 19.9974C7.4084 21.7435 5.02158 22.898 2.34144 23.1325C1.87974 23.1729 1.4206 23.186 0.968941 23.1714C3.64715 24.6119 6.74142 25.3207 9.97167 25.0381C20.499 24.1171 25.4717 14.6734 24.7933 6.91849C24.7709 6.66329 24.7437 6.40853 24.712 6.15923C25.7578 5.23369 26.6383 4.11623 27.3 2.87242Z" fill="#949BA5"/>
</svg>
