<svg width="28" height="25" viewBox="0 0 28 25" fill="none" xmlns="http://www.w3.org/2000/svg">
<path d="M7.6905 15.6525L1.2102 14.1288C1.2102 14.1288 0.431211 13.886 0.611288 13.165C0.647969 13.0155 0.738265 12.8841 1.01826 12.6459C2.32845 11.5402 25.9925 0.523037 25.9925 0.523037C26.3339 0.36715 26.7107 0.306946 27.0834 0.348728C27.1869 0.371501 27.2826 0.421567 27.3609 0.493831C27.4391 0.566095 27.497 0.657978 27.5288 0.760131C27.5884 0.940071 27.6231 1.12746 27.6318 1.31694C27.6461 1.48029 27.638 1.63416 27.6443 1.87366C27.7073 4.31318 24.84 22.8212 24.84 22.8212C24.84 22.8212 24.6667 23.9039 23.7147 24.0238C23.4802 24.0528 23.2423 24.0337 23.0152 23.9675C22.788 23.9014 22.5763 23.7896 22.3929 23.6388C20.3759 22.1727 13.5138 18.3402 11.9981 17.4978C11.965 17.4779 11.9363 17.4513 11.9141 17.4196C11.8918 17.3878 11.8764 17.3517 11.8689 17.3136C11.8397 17.2133 11.9388 17.0789 11.9388 17.0789C11.9388 17.0789 22.33 5.95985 22.5367 4.87071C22.5531 4.78697 22.462 4.75379 22.3472 4.79927C21.6219 5.14392 9.36207 14.5666 8.00889 15.6075C7.90773 15.6474 7.7987 15.6628 7.6905 15.6525Z" fill="#949BA5"/>
</svg>
