<svg width="30" height="22" viewBox="0 0 30 22" fill="none" xmlns="http://www.w3.org/2000/svg">
<path fill-rule="evenodd" clip-rule="evenodd" d="M12.3092 14.9321L11.6178 7.03935L19.5008 10.34L12.3092 14.9321ZM28.0468 4.22384C28.0468 4.22384 27.6047 2.31204 26.6941 1.53278C25.5354 0.506324 24.346 0.605067 23.7955 0.58777C19.8673 0.644843 14.0123 1.15709 14.0123 1.15709L14.0001 1.15816C14.0001 1.15816 8.14507 1.6704 4.26661 2.29633C3.72663 2.40903 2.539 2.51825 1.57523 3.7304C0.813873 4.65593 0.711256 6.61539 0.711256 6.61539C0.711256 6.61539 0.631241 8.91343 0.830083 11.1862L1.01656 13.3176C1.21548 15.5913 1.69325 17.8396 1.69325 17.8396C1.69325 17.8396 2.13457 19.7515 3.04507 20.5308C4.20469 21.5571 5.59541 21.4001 6.22626 21.4625C8.47662 21.4833 15.7348 20.9155 15.7348 20.9155C15.7348 20.9155 21.5951 20.3939 25.4736 19.768C26.0126 19.6545 27.2011 19.5452 28.164 18.3331C28.9253 17.4076 29.0288 15.4481 29.0288 15.4481C29.0288 15.4481 29.1089 13.1509 28.91 10.8773L28.7235 8.74584C28.5247 6.47307 28.0468 4.22384 28.0468 4.22384Z" fill="#949BA5"/>
</svg>
